<?xml version="1.0" encoding="utf-8"?>
<!-- Generator: Adobe Illustrator 17.1.0, SVG Export Plug-In . SVG Version: 6.00 Build 0)  -->
<!DOCTYPE svg PUBLIC "-//W3C//DTD SVG 1.1//EN" "http://www.w3.org/Graphics/SVG/1.1/DTD/svg11.dtd">
<svg version="1.1" id="Layer_1" xmlns="http://www.w3.org/2000/svg" xmlns:xlink="http://www.w3.org/1999/xlink" x="0px" y="0px"
	 viewBox="0 0 147.7 262.2" enable-background="new 0 0 147.7 262.2" xml:space="preserve">
<g>
	<g>
		<path fill="#3F78AA" d="M73.7,262.2c-0.9,0-2.3-0.1-3.6-0.6l-65-23.6c-3-1.1-5.1-4.1-5.1-7.3V31.5c0-3.2,2.2-6.2,5.1-7.3L70.4,0.6
			C71.7,0.1,73.1,0,74,0c0.9,0,2.3,0.1,3.6,0.6l65,23.6c3,1.1,5.1,4.1,5.1,7.3v199.3c0,3.2-2.2,6.2-5.1,7.3l-65.3,23.6
			C76,262.1,74.6,262.2,73.7,262.2z"/>
	</g>
	<g>
		<path fill="#FFFFFF" d="M73.7,261.1c-0.8,0-2.1-0.1-3.3-0.5L5.5,237c-2.6-0.9-4.4-3.6-4.4-6.3V31.5c0-2.7,1.9-5.4,4.4-6.3
			L70.7,1.6c1.2-0.4,2.4-0.5,3.2-0.5c0.8,0,2.1,0.1,3.3,0.5l65,23.6c2.6,0.9,4.4,3.6,4.4,6.3v199.3c0,2.7-1.9,5.4-4.4,6.3
			l-65.3,23.6C75.8,261.1,74.5,261.1,73.7,261.1z"/>
	</g>
	<g>
		<path fill="#3F78AA" d="M143,176.3V31.5c0-1.2-0.9-2.5-2-2.9L76,5c-1.1-0.4-2.9-0.4-4.1,0L6.7,28.6c-1.1,0.4-2,1.7-2,2.9v144.9
			H143z"/>
		<path fill="#3F78AA" d="M4.7,206.3v24.5c0,1.2,0.9,2.5,2,2.9l65,23.6c1.1,0.4,2.9,0.4,4.1,0l65.3-23.6c1.1-0.4,2-1.7,2-2.9v-24.5
			H4.7z"/>
	</g>
	<path fill="#FFFFFF" d="M140,159.4l-18.7-20.6c-1.2-1.4-3.4-2.4-5.1-2.4l-84.7,0c-1.7,0-3.8,1-5.1,2.4L7.7,159.4H6.8V31.5
		c0-0.3,0.3-0.8,0.6-0.9L72.7,7c0.2-0.1,0.7-0.2,1.3-0.2c0.6,0,1.1,0.1,1.3,0.2l65,23.6c0.3,0.1,0.6,0.6,0.6,0.9v127.9H140z"/>
	<g>
		<g>
			<path fill="#3F78AA" d="M107.9,115.8V70.1h5.6c0,0,0-5.6,0-5.6c-0.1-0.6-0.6-1.1-1.2-1.1c0,0-18,0-18,0v6.7h5.9V88H84.6
				c-1.4,1.8-3.2,3.3-5.6,4.4c1.1,0.6,2.2,1.3,3.1,2.1h18.1v21.3h-5.9v6.7c0,0,18,0,18.1,0c0.6-0.1,1-0.5,1.1-1.1c0-0.1,0-5.6,0-5.6
				H107.9z"/>
			<path fill="#3F78AA" d="M79.7,97.9c-0.7-1.1-1.6-2-2.7-2.9c-0.1-0.1-0.2-0.2-0.3-0.2c-1-0.8-2-1.5-3.2-2.1
				c2.4-1.1,4.2-2.6,5.6-4.4c0.1-0.2,0.3-0.4,0.4-0.6c1.4-2.1,2.1-4.4,2.1-6.9c0-2.4-0.4-4.7-1.3-6.8c-0.9-2.1-2.1-3.9-3.7-5.5
				c-1.6-1.5-3.4-2.8-5.5-3.7c-2.1-0.9-4.4-1.3-6.8-1.3c0,0-27.5,0-27.5,0c-0.6,0-1.2,0.6-1.2,1.2c0,0,0,0,0,0c0,0,0,0,0,0v5.5h28.8
				c1.2,0,2.4,0.3,3.5,0.9c1.1,0.6,2,1.4,2.8,2.3c0.8,1,1.4,2.1,1.9,3.3c0.5,1.2,0.7,2.5,0.7,3.8c0,1.2-0.2,2.3-0.7,3.4
				c-0.5,1.1-1.1,2.1-1.9,2.9c-0.8,0.8-1.7,1.5-2.8,2c-1.1,0.5-2.2,0.7-3.5,0.7H51.1V78.3c0,0,0-0.1,0-0.1c0-0.6-0.5-1.1-1.1-1.1
				c0,0,0,0,0,0c0,0,0,0,0,0l-7.7,0l0,0c-0.6,0-1.1,0.5-1.2,1.2c0,0,0,0,0,0s0,0,0,0v5.4h2.4v25.5c0,0,0,0,0,0.1
				c0,0.6,0.5,1.1,1.1,1.1c0,0,0,0,0,0c0,0,6.5,0,6.5,0v-10.2c0,0,0-0.1,0-0.1c0-0.2-0.1-0.4-0.2-0.6l0,0l-3.2-3.2l17.2,0
				c1.2,0,2.4,0.2,3.5,0.7c1.1,0.5,2,1.2,2.8,2c0.8,0.8,1.4,1.8,1.9,2.8c0.5,1.1,0.7,2.2,0.7,3.3c0,1.3-0.2,2.6-0.7,3.9
				c-0.5,1.3-1.1,2.4-1.9,3.4c-0.8,1-1.7,1.8-2.8,2.4c-1.1,0.6-2.2,0.9-3.5,0.9H35.7v5.5c0,0,0,0,0,0c0,0,0,0,0,0
				c0,0.6,0.5,1.2,1.1,1.2c0,0,27.9,0,27.9,0c2.4,0,4.6-0.5,6.7-1.4c2.1-0.9,3.9-2.2,5.5-3.7c1.6-1.6,2.8-3.4,3.7-5.6
				c0.9-2.1,1.3-4.4,1.3-6.9c0-1.2-0.2-2.5-0.6-3.7C81,100.1,80.4,99,79.7,97.9z"/>
		</g>
		<g>
			<polygon fill="#E9EAEA" points="113.5,71.1 113.5,71.1 108.9,71.1 108.9,72.1 113.5,72.1 			"/>
			<polygon fill="#E9EAEA" points="98.2,87 99.2,87 99.2,71.1 93.3,71.1 93.3,63.4 93.3,63.4 92.3,63.4 92.3,72.1 98.2,72.1 			"/>
			<path fill="#E9EAEA" d="M112.5,123.6c-0.1,0-0.1,0-4.8,0l-14.4,0v-7.7h-1v8.7l14.4,0c4.7,0,4.7,0,4.8,0c0.8-0.1,1.5-0.6,1.8-1.2
				C113,123.4,112.8,123.5,112.5,123.6z"/>
			<g>
				<path fill="#E9EAEA" d="M66.9,98.9c1,0.4,1.8,1,2.5,1.8c0.7,0.7,1.3,1.6,1.7,2.6c0.4,0.9,0.6,1.9,0.6,2.9c0,1.2-0.2,2.4-0.6,3.6
					c-0.4,1.2-1,2.2-1.7,3.1c-0.1,0.1-0.2,0.2-0.2,0.3c0.4-0.4,0.9-0.8,1.2-1.3c0.7-0.9,1.3-2,1.7-3.1c0.4-1.2,0.6-2.4,0.6-3.6
					c0-1-0.2-2-0.6-2.9c-0.4-1-1-1.8-1.7-2.6c-0.7-0.7-1.5-1.3-2.5-1.8c-0.9-0.4-2-0.7-3-0.7l-14.8,0l1,1l12.8,0
					C64.9,98.2,65.9,98.5,66.9,98.9z"/>
				<path fill="#E9EAEA" d="M71.9,122.1c-2.2,1-4.6,1.4-7.1,1.4H44.1c-7.3,0-7.3,0-7.3,0c-1.1-0.1-2-1-2-2.1l0-0.2l0,0v-5.4h-1v6.4
					l0,0l0,0.2c0.1,1.1,0.9,2,2,2.1c0.1,0,0.1,0,7.3,0l20.7,0c2.5,0,4.9-0.5,7.1-1.4c2.2-1,4.2-2.3,5.8-4c0.1-0.1,0.3-0.3,0.4-0.4
					C75.6,120.1,73.8,121.3,71.9,122.1z"/>
				<path fill="#E9EAEA" d="M66.4,72.9c1,0.5,1.8,1.2,2.5,2.1c0.7,0.9,1.3,1.9,1.7,3c0.4,1.1,0.6,2.3,0.6,3.4c0,1-0.2,2-0.6,3
					c-0.4,0.8-0.9,1.6-1.4,2.3c0.3-0.2,0.5-0.4,0.7-0.7c0.7-0.7,1.3-1.6,1.7-2.6c0.4-1,0.6-2,0.6-3c0-1.1-0.2-2.3-0.6-3.4
					c-0.4-1.1-1-2.1-1.7-3c-0.7-0.9-1.6-1.6-2.5-2.1c-0.9-0.5-1.9-0.8-3-0.8H34.7l0-6.7c0-0.3,0.1-0.6,0.2-0.9
					c-0.7,0.3-1.2,1-1.2,1.9l0,6.7h29.8C64.5,72.1,65.5,72.4,66.4,72.9z"/>
				<path fill="#E9EAEA" d="M40.2,77.2c-0.7,0.3-1.2,1-1.2,1.8l0,6.5h2.4v24.6c0,1.1,0.9,2,2,2.1l0.1,0l7.6,0v-1l-6.6,0l-0.1,0
					c-1.1-0.1-2-1-2-2.1V84.6H40l0-6.5C40,77.8,40.1,77.5,40.2,77.2z"/>
			</g>
			<path fill="#E9EAEA" d="M81.8,95.6l-0.3-0.2c-1-0.8-1.9-1.4-3-2L77.9,93l-0.6,0.3c0.6,0.4,0.6,0.5,1.1,0.9
				c0.1,0.1,0.2,0.2,0.3,0.2c0.8,0.7,1.4,1.4,2,2.1l0.1,0h17.4v18.3h1V95.6H81.8z"/>
		</g>
	</g>
	<path fill="#FFFFFF" d="M126.5,170.7l0-5.9c0-0.4-0.2-0.9-0.5-1.2L111.7,148c-0.3-0.3-0.8-0.5-1.2-0.5l-73.4,0
		c-0.4,0-0.9,0.2-1.2,0.5l-14.3,15.9c-0.3,0.3-0.5,0.8-0.5,1.2l0,5.6H126.5z"/>
	<g>
		<path fill="#3F78AA" d="M49.6,154.6h4.7c1.2,0,2.1,0.3,2.7,0.9c0.5,0.5,0.7,1,0.7,1.7v0c0,1.2-0.6,1.8-1.3,2.2
			c1.2,0.5,1.9,1.1,1.9,2.5v0c0,1.9-1.5,2.8-3.8,2.8h-4.9V154.6z M53.9,158.8c1,0,1.6-0.3,1.6-1.1v0c0-0.7-0.5-1.1-1.5-1.1h-2.2v2.2
			H53.9z M54.5,162.9c1,0,1.6-0.4,1.6-1.1v0c0-0.7-0.5-1.1-1.7-1.1h-2.6v2.2H54.5z"/>
		<path fill="#3F78AA" d="M60.1,160.5v-5.8h2.2v5.8c0,1.7,0.8,2.5,2.2,2.5c1.4,0,2.2-0.8,2.2-2.5v-5.8H69v5.8c0,3.1-1.7,4.6-4.5,4.6
			C61.8,165,60.1,163.5,60.1,160.5z"/>
		<path fill="#3F78AA" d="M73.6,156.7h-3.1v-2.1H79v2.1h-3.1v8.1h-2.2V156.7z"/>
		<path fill="#3F78AA" d="M83.3,156.7h-3.1v-2.1h8.5v2.1h-3.1v8.1h-2.2V156.7z"/>
		<path fill="#3F78AA" d="M90.3,154.6H98v2h-5.5v2.1h4.8v2h-4.8v2.1h5.5v2h-7.8V154.6z"/>
	</g>
	<path fill="#FFFFFF" d="M21.2,212.7l0,10.5c0,0.4,0.3,0.8,0.6,0.9l41.4,15c1.5-4.4,5.7-7.5,10.6-7.5c4.9,0,9,3.1,10.6,7.4l41.4-15
		c0.4-0.1,0.7-0.5,0.7-0.9l0-10.4H21.2z"/>
	<g>
		<path fill="#3F78AA" d="M57.8,217.9h2.1l2.3,3.7l2.3-3.7h2.1v8.8h-1.9V221l-2.5,3.8h-0.1l-2.5-3.7v5.7h-1.9V217.9z"/>
		<path fill="#3F78AA" d="M68.9,217.9h1.9v8.8h-1.9V217.9z"/>
		<path fill="#3F78AA" d="M73.1,217.9h1.8l4.1,5.4v-5.4h1.9v8.8h-1.6l-4.3-5.6v5.6h-1.9V217.9z"/>
		<path fill="#3F78AA" d="M83.1,217.9h6.6v1.7h-4.7v1.8h4.2v1.7h-4.2v1.8h4.8v1.7h-6.7V217.9z"/>
	</g>
	<g>
		<path fill="#FFFFFF" d="M68.9,239.9h1.2l1.3,2.1l1.3-2.1h1.2v4.9h-1.1v-3.2l-1.4,2.1h0l-1.4-2.1v3.2h-1.1V239.9z"/>
		<path fill="#FFFFFF" d="M76.2,240.9h-1.5v-1h4.1v1h-1.5v3.9l-1.1,0V240.9z"/>
	</g>
	<g>
		<g>
			<g>
				<rect x="15.2" y="183.9" fill="#E9EAEA" width="1" height="4.3"/>
				<polygon fill="#E9EAEA" points="16.2,197.2 16.2,191.8 11.8,191.8 11.8,192.8 15.2,192.8 15.2,198.2 19.1,198.2 19.1,197.2 				
					"/>
				<polygon fill="#E9EAEA" points="7.9,197.2 7.9,183.9 6.9,183.9 6.9,198.2 10.8,198.2 10.8,197.2 				"/>
			</g>
			<g>
				<polygon fill="#E9EAEA" points="24.5,197.2 24.5,183.9 23.5,183.9 23.5,198.2 27.4,198.2 27.4,197.2 				"/>
			</g>
			<g>
				<path fill="#E9EAEA" d="M37.9,189.5v3.5h2.9v0.5c0.4-0.1,0.7-0.2,1-0.4v-1.1h-2.9v-2.5H37.9z"/>
				<path fill="#E9EAEA" d="M42.5,187.6c-1-0.8-1.8-1.2-3.2-1.2c-1.1,0-2.1,0.6-2.7,1.5c0.5-0.3,1.1-0.5,1.7-0.5
					c1.4,0,2.2,0.4,3.1,1.2h0.8l0.6-0.7L42.5,187.6z"/>
				<path fill="#E9EAEA" d="M39.5,197.4c-4.3,0-7.5-3.1-7.5-7.3c0-1.8,0.6-3.5,1.7-4.7c-1.6,1.3-2.7,3.4-2.7,5.7
					c0,4.3,3.2,7.3,7.5,7.3c2.2,0,4.3-0.8,6-2.2l0.2-0.2v-0.2C43.1,196.9,41.4,197.4,39.5,197.4z"/>
			</g>
			<g>
				<rect x="56.9" y="183.9" fill="#E9EAEA" width="1" height="4.3"/>
				<polygon fill="#E9EAEA" points="57.9,197.2 57.9,191.8 53.5,191.8 53.5,192.8 56.9,192.8 56.9,198.2 60.9,198.2 60.9,197.2 				
					"/>
				<polygon fill="#E9EAEA" points="49.6,197.2 49.6,183.9 48.6,183.9 48.6,198.2 52.5,198.2 52.5,197.2 				"/>
			</g>
			<g>
				<polygon fill="#E9EAEA" points="66.1,197.2 66.1,183.9 65.1,183.9 65.1,198.2 75.7,198.2 75.7,197.2 				"/>
			</g>
			<g>
				<polygon fill="#E9EAEA" points="86.6,188.1 85.9,189.8 86.2,190.6 87.6,190.6 				"/>
				<polygon fill="#E9EAEA" points="90.3,197.2 89,194.2 84.1,194.2 83.7,195.2 88,195.2 89.3,198.2 93.4,198.2 93,197.2 				"/>
				<polygon fill="#E9EAEA" points="78.8,197.2 84.5,183.8 83.9,183.8 77.8,198.2 81.9,198.2 82.3,197.2 				"/>
			</g>
			<g>
				<polygon fill="#E9EAEA" points="106,190.1 106,183.9 105,183.9 105,188.8 				"/>
				<polygon fill="#E9EAEA" points="97,197.2 97,183.9 96,183.9 96,198.2 99.9,198.2 99.9,197.2 				"/>
				<polygon fill="#E9EAEA" points="106.6,197.2 100.9,189.7 100.9,192 105.6,198.2 108.9,198.2 108.9,197.2 				"/>
			</g>
			<g>
				<path fill="#E9EAEA" d="M123.3,190.1c0-2.1-1.4-3.5-3.5-3.5H118v1h0.8c2.1,0,3.5,1.4,3.5,3.5c0,0.8-0.2,1.4-0.5,1.9
					C122.7,192.4,123.3,191.4,123.3,190.1z"/>
				<path fill="#E9EAEA" d="M119.8,197.2h-5.7v-13.3h-1v14.3h5.7c2.5,0,4.7-1,6-2.7C123.5,196.6,121.8,197.2,119.8,197.2z"/>
			</g>
			<g>
				<path fill="#E9EAEA" d="M131.9,192.1L131.9,192.1l0.4,0.2c0.6,0.2,1.2,0.4,1.8,0.6c1.7,0.4,2.1,0.7,2.3,1c0.4,0,1-0.2,1-0.7
					c0-0.3,0-0.7-2.3-1.2c-2.6-0.7-4.8-1.5-4.8-4.5c0-1,0.3-1.8,0.8-2.5c-1.1,0.8-1.8,2-1.8,3.5
					C129.3,190.4,130.4,191.4,131.9,192.1z"/>
				<path fill="#E9EAEA" d="M138.6,187.5c-1.2-0.8-2.2-1.2-3.2-1.2c-0.7,0-1.2,0.3-1.2,0.7c0,0.1,0,0.2,0.1,0.4c0,0,0.1,0,0.1,0
					c0.9,0,2,0.4,3.2,1.2c0.2,0.1,0.3,0.1,0.5,0.2l0.7-1L138.6,187.5z"/>
				<path fill="#E9EAEA" d="M135.9,197.4c-2.2,0-4.3-0.8-6-2.3l-0.4-0.3l1.5-1.7l-0.1-0.1l-2.4,2.8l0.4,0.3c1.6,1.5,3.8,2.3,6,2.3
					c2.1,0,3.7-0.8,4.6-2C138.6,197,137.4,197.4,135.9,197.4z"/>
			</g>
		</g>
		<g>
			<path fill="#3F78AA" d="M8.4,183.4h2.9v5.3h5.4v-5.3h2.9v13.3h-2.9v-5.3h-5.4v5.3H8.4V183.4z"/>
			<path fill="#3F78AA" d="M25,183.4h2.9v13.3H25V183.4z"/>
			<path fill="#3F78AA" d="M32.5,190.1L32.5,190.1c0-3.8,2.9-6.9,7-6.9c2.4,0,3.8,0.6,5.2,1.8l-1.8,2.2c-1-0.9-1.9-1.3-3.5-1.3
				c-2.1,0-3.8,1.9-3.8,4.1v0c0,2.4,1.7,4.2,4,4.2c1.1,0,2-0.3,2.8-0.8v-1.9h-2.9V189h5.8v5.8c-1.4,1.2-3.2,2.1-5.7,2.1
				C35.4,196.9,32.5,194,32.5,190.1z"/>
			<path fill="#3F78AA" d="M50.1,183.4H53v5.3h5.4v-5.3h2.9v13.3h-2.9v-5.3H53v5.3h-2.9V183.4z"/>
			<path fill="#3F78AA" d="M66.6,183.4h2.9V194h6.6v2.7h-9.6V183.4z"/>
			<path fill="#3F78AA" d="M85.3,183.3H88l5.7,13.4h-3.1l-1.2-3h-5.6l-1.2,3h-3L85.3,183.3z M88.3,191.1l-1.8-4.3l-1.8,4.3H88.3z"/>
			<path fill="#3F78AA" d="M97.5,183.4h2.7l6.2,8.2v-8.2h2.9v13.3h-2.5l-6.4-8.5v8.5h-2.9V183.4z"/>
			<path fill="#3F78AA" d="M114.6,183.4h5.2c4.2,0,7.1,2.9,7.1,6.6v0c0,3.7-2.9,6.7-7.1,6.7h-5.2V183.4z M119.8,194c2.4,0,4-1.6,4-4
				v0c0-2.4-1.6-4-4-4h-2.3v8H119.8z"/>
			<path fill="#3F78AA" d="M130.3,194.7l1.7-2.1c1.2,1,2.4,1.6,4,1.6c1.2,0,1.9-0.5,1.9-1.3v0c0-0.7-0.5-1.1-2.7-1.7
				c-2.7-0.7-4.4-1.4-4.4-4.1v0c0-2.4,1.9-4,4.7-4c1.9,0,3.6,0.6,4.9,1.7l-1.5,2.2c-1.2-0.8-2.3-1.3-3.5-1.3c-1.1,0-1.7,0.5-1.7,1.2
				v0c0,0.9,0.6,1.2,2.9,1.7c2.7,0.7,4.2,1.7,4.2,4v0c0,2.6-2,4.1-4.9,4.1C133.9,196.9,131.9,196.2,130.3,194.7z"/>
		</g>
	</g>
	<g>
		<circle fill="#3F78AA" cx="73.8" cy="35" r="14.4"/>
		<g>
			<path fill="#3F78AA" d="M73.8,52.6c-9.7,0-17.6-7.9-17.6-17.6s7.9-17.6,17.6-17.6S91.5,25.3,91.5,35S83.6,52.6,73.8,52.6z
				 M73.8,18.4c-9.2,0-16.6,7.5-16.6,16.6c0,9.2,7.4,16.6,16.6,16.6c9.2,0,16.6-7.5,16.6-16.6C90.5,25.9,83,18.4,73.8,18.4z"/>
		</g>
		<g>
			<g>
				<path fill="#FFFFFF" d="M72.1,35.9l-6.9,6.9c-0.1,0.1-0.1,0.4,0,0.5l0.6,0.6c0.1,0.1,0.4,0.1,0.5,0l6.9-6.9L72.1,35.9z"/>
				<path fill="#FFFFFF" d="M82,28.6c0-0.1,0-0.2,0-0.2l0,0l0.1-0.1c0.1-0.1,0.1-0.4,0-0.5l-0.6-0.6c-0.1-0.1-0.4-0.1-0.5,0
					l-0.1,0.1l-0.1-0.1c-0.1-0.1-0.1-0.1-0.2,0c-0.8-0.7-3.3-2.6-5.2-3.1c0,0-0.1,0.1,0.1,0.3c0,0,3.1,2.5,4.3,3.8l-0.8,0.8l0,0.2
					l-4.4,4.4l1.1,1.1l4.4-4.4l0.2,0l0.8-0.8c1.3,1.2,3.7,4.2,3.7,4.2c0.2,0.2,0.3,0.1,0.3,0.1C84.6,31.9,82.7,29.4,82,28.6z"/>
			</g>
			<path fill="#FFFFFF" d="M62.6,33.8c0.5-1.9,2.4-4.4,3.1-5.2c0-0.1,0-0.2,0-0.2l0,0l-0.1-0.1c-0.1-0.1-0.1-0.4,0-0.5l0.6-0.6
				c0.1-0.1,0.4-0.1,0.5,0l0.1,0.1l0.1-0.1c0.1-0.1,0.1-0.1,0.2,0c0.8-0.7,3.3-2.6,5.2-3.1c0,0,0.1,0.1-0.1,0.3c0,0-3.1,2.5-4.3,3.8
				l0.8,0.8l0,0.2l13.7,13.7c0.1,0.1,0.1,0.4,0,0.5L81.9,44c-0.1,0.1-0.4,0.1-0.5,0L67.7,30.2l-0.2,0l-0.8-0.8
				c-1.3,1.2-3.7,4.2-3.7,4.2C62.7,33.9,62.6,33.8,62.6,33.8z"/>
		</g>
	</g>
</g>
</svg>
