<?xml version="1.0" encoding="utf-8"?>
<!-- Generator: Adobe Illustrator 17.1.0, SVG Export Plug-In . SVG Version: 6.00 Build 0)  -->
<!DOCTYPE svg PUBLIC "-//W3C//DTD SVG 1.1//EN" "http://www.w3.org/Graphics/SVG/1.1/DTD/svg11.dtd">
<svg version="1.1" id="Layer_1" xmlns="http://www.w3.org/2000/svg" xmlns:xlink="http://www.w3.org/1999/xlink" x="0px" y="0px"
	 viewBox="0 0 230 194.4" enable-background="new 0 0 230 194.4" xml:space="preserve">
<g>
	<g>
		<defs>
			<polygon id="SVGID_1_" points="216.2,0 86.2,0 86.2,194.4 214.3,143.4 			"/>
		</defs>
		<clipPath id="SVGID_2_">
			<use xlink:href="#SVGID_1_"  overflow="visible"/>
		</clipPath>
		<path clip-path="url(#SVGID_2_)" fill="#D4D5D5" d="M195.7,186l5.4,1l-8.1-17l-0.4-0.9l2-1.2c3.6,7.7,7.2,15.4,9.1,19.5l0.6,0.1
			c-4.5-9.6-18.8-40.4-19.3-41.2c-0.6-1.1-2.1-0.9-2.8-0.7c-0.4,0.1-1.8,0.8-2.5,1.1v-2.7v-0.3l-0.1-0.1h-0.2l-34.8-74.9v-0.7
			l-0.2-0.2h-0.2l-0.3-0.7c0-0.1-0.2-0.5-0.4-0.5l-10.7-3.1l-1-1.6h-0.5L128.9,40l0.3,0v-1.7l-1-0.6l3.9-2.5l0,0l1,0.2l0.7-1.4
			l-0.1-1.5l-0.2-0.1l-1.1,0.7l-6.1,3.9h-1.5l-0.4,0.4v0.8L112.6,46h-1.4l-0.4,0.4v0.7l-7.8,5v1.6l9.2-5.9h0.8l0.3,0.1l-0.5,14.6
			l-1.2,1.5c-1,0-2,0.2-2.9,0.8c-0.5,0.3-0.9,0.7-1.3,1.2c-0.3,0.5-0.6,1-0.8,1.6c-0.1,0.3-0.2,0.5-0.2,0.8l-11.1,6.8
			c-0.2,0.1-0.3,0.3-0.3,0.4c0,0.3,0.3,0.4,0.5,0.5v1.5l-0.1,0.1c-0.2,0.1-0.3,0.3-0.3,0.4c0,0.2,0.2,0.4,0.3,0.5v3V82v1.3l0.3,0.2
			l10.5,2.6l1.4,5.2l-0.9,20h-0.3l-0.1,2.7h0.3l-0.9,20.2h-0.4l-0.1,2.7h0.3l-0.5,12.4l-5.9,2.5v1h1.6l3.2,5.5l0,0l0.1,0.1h0
			l0.2,0.4l-0.2,18.6l0,0.1l-3,1.2v1.6l2.8,2.6l0,0v2.7l-0.8,0.3v2l0.4,0.9l0,1.3l35-14.8L195.7,186L195.7,186z M104.2,180.1
			l-1.3-0.4v-0.3l1.3-0.7V180.1z M196.3,179.3L196.3,179.3L196.3,179.3L196.3,179.3z M193,172.4l0.5,0.9l-0.5,0.3l-0.5-0.9
			L193,172.4z M192.8,171.8l-0.6,0.3l-0.5-0.9l0.7-0.3L192.8,171.8z M185.1,155.6l0.5,0.9l-1.7,0.9l-0.5-0.9L185.1,155.6z
			 M183.2,156l-0.5-0.9l1.8-0.6l0.3,0.7L183.2,156z M185.8,157l0.5,0.9l-1.7,0.9l-0.5-0.9L185.8,157z M186.4,158.4l0.5,0.9l-1.6,0.8
			l-0.5-0.9L186.4,158.4z M187.1,159.8l0.5,0.9l-1.5,0.8l-0.5-0.9L187.1,159.8z M187.8,161.2l0.5,0.9l-1.4,0.7l-0.5-0.9L187.8,161.2
			z M188.4,162.6l0.5,0.9l-1.3,0.6l-0.5-0.9L188.4,162.6z M189.1,164l0.5,0.9l-1.2,0.6l-0.5-0.9L189.1,164z M189.7,165.4l0.5,0.9
			l-1,0.5l-0.5-0.9L189.7,165.4z M190.4,166.8l0.5,0.9l-0.9,0.5l-0.5-0.9L190.4,166.8z M191,168.2l0.5,0.9l-0.8,0.4l-0.5-0.9
			L191,168.2z M191.7,169.6l0.5,0.9l-0.7,0.4l-0.5-0.9L191.7,169.6z M194.3,167.6l-2,1.2l-4.5-9.6l-0.1-0.3l2-1
			C191.1,160.8,192.7,164.2,194.3,167.6z M185,148.7h0.4c0.9,1.9,2.3,5,4.1,8.7l-2,1l-1.1-2.6l-1.3-2.9V148.7z M183.3,146
			c0.4,0,0.9,0.2,1.1,0.6c0,0.1,0.2,0.4,0.5,1v0.6h-0.4l-0.2,0.3l-1,0V146z M183.3,148.9l1.2,0v1.8l-1.2,0.6V148.9z M183.3,151.9
			l1.2-0.6v1L183.3,151.9L183.3,151.9z M183.3,152.5l1.2,0.3v0.8l-0.1,0.2l-2.1,0.7v-0.8L183.3,152.5z M180.4,150.7l-0.6-0.6
			c1.1-0.5,2.6-1.1,2.7-1.1c0.1,0,0.2,0,0.3,0v2.7l-1,0.5v-1.5H180.4z M179.6,147.4c0.5-0.2,2.3-1.1,2.7-1.2c0.1,0,0.3-0.1,0.5-0.1
			v2.4c-0.1,0-0.3,0-0.4,0c-0.2,0.1-2,0.8-2.8,1.1V147.4z M179.2,144.6v3.9L175,141l-0.2-0.4l2-1L179.2,144.6z M178,153.5v0.5
			l-0.9,0.4v-0.6L178,153.5z M174.5,151.5l-1-0.2v-1l1.3-0.2l0.8,1.1v0.4H174.5z M175,153.7v1.6l-0.7,0.3c-0.2,0.1-0.4,0-0.4,0
			l-0.3,0v-1.9H175z M150,158L150,158l-0.2-2l9.6-1.2l0.2,0l0.1,0l2,5.7l-6.6,2.8L150,158z M154.2,163.7l-3,1.3l-0.1-0.3l-0.9-1.8
			l-0.2-3.5L154.2,163.7z M127.1,155.9l-0.5-2.7l5.7-2.8l0.7,0.4l-1.1,4.9L127.1,155.9z M131.6,156.6l-0.9,3.9l-1.9,0.9l-0.8-0.2
			l-0.8-4.4L131.6,156.6z M121.6,125.2l-0.4,0.4v0.8l-1,0.5l-9.8-12.9h-0.3v-1.6l16.6,4.1l-1.6,7.9l-1.5,0.8H121.6z M122.9,127.6
			l-0.9,1.5l-0.6-0.7L122.9,127.6z M115.5,147.5c0,0-0.1-0.3-0.6-0.7l3.4-1.7l0.2,0.7c0,0.9-0.1,1.6-0.1,1.6L115.5,147.5z
			 M115.7,178.7l-0.6-0.1l0.5-2.5l0,0L115.7,178.7z M115.3,162.7l0.1,5.4l-3.1-3v-4.2l0.2-0.3L115.3,162.7z M112.8,160.1l0.4-0.7
			l0,0.1l2,0.4l0,2.2L112.8,160.1z M114.3,146.5c-0.2-0.1-0.4-0.1-0.6-0.2c-0.3-0.1-0.6-0.1-0.9-0.1l3.1-5.1h1l1.2,3.5L114.3,146.5z
			 M116.8,137.8l-2.1-6l5.7-2.9l1,1.2L116.8,137.8z M114.2,129.9l-4.6-14v-0.5h0.6l9,11.9l-1.6,0.8h-1.9l-0.4,0.4v0.7L114.2,129.9z
			 M115.7,91.3L115.7,91.3l0.9,0l1,0.7l-0.1,1.9l-5.6,9.6h-0.5v-0.6L115.7,91.3z M115,70.1l-0.4-0.4l1-0.6l0.5,0.4L115,70.1z
			 M117.2,61.7c0,0.1,0,0.2-0.1,0.3l-2.2,1.2l-0.7-0.7l0-0.2C114.8,62,115.6,61.7,117.2,61.7z M114.3,61.3l0.4-12.4h0.6v-1l4.6-2.9
			l0.1,0.4L114.9,61C114.7,61.1,114.5,61.2,114.3,61.3z M123,61.6l0-0.5c0.5,0.1,1.2,0.3,1.9,0.5l-0.6,1.9h-0.5L123,61.6z M123,63.3
			h-0.9l-0.2-0.1v-1.7l0.4,0.1l0.6,1.4L123,63.3z M125.4,61.8c1.6,0.4,3.1,0.9,3.6,1c0,0.2,0,0.4,0,0.6l-2,0.8l-0.7-0.9h-1.2l-0.2,0
			L125.4,61.8z M125.6,61.4l0.6-1.7c0.6,0.5,1.7,1.4,2.5,2.6C128,62,126.8,61.7,125.6,61.4z M125.1,61.2c-1.1-0.3-2.1-0.6-2.6-0.7
			l-0.9-2.1c1.2-0.3,2.6,0,4.1,0.9c0,0,0,0,0,0L125.1,61.2z M121.9,60.4c-0.6-0.2-1.8-0.4-3,0.6l-0.4-0.3c0.5-0.8,1.2-1.6,2.4-2.1
			c0.1,0,0.1,0,0.2-0.1L121.9,60.4z M143.4,72.4V73l-2.4-0.6v-0.7L143.4,72.4z M141,71.2v-2.3l2.4,0.6v2.3L141,71.2z M173.9,145.4
			l-0.5-0.9l1.5-0.8l0.5,0.9L173.9,145.4z M175.6,145.2l0.5,0.9l-1,0.5l-0.5-0.9L175.6,145.2z M173.2,144l-0.5-0.9l1.4-0.7l0.5,0.9
			L173.2,144z M172.5,142.6l-0.5-0.9l1.3-0.7l0.5,0.9L172.5,142.6z M171.9,141.2l-0.5-0.9l1.3-0.7l0.5,0.9L171.9,141.2z
			 M171.2,139.8l-0.5-0.9l1.2-0.6l0.5,0.9L171.2,139.8z M158.5,148l-0.4-1l3.7,0.8l0.2,1L158.5,148z M162.4,150.3l0.3,1.8l-2.9-0.6
			l-0.6-1.8L162.4,150.3z M158,146.4l-9-26.1h0.8l8.5,9.4l0,0l3.4,17.6L158,146.4z M156.3,147.5l-0.9-1.2l1.7,0.4l0.4,1L156.3,147.5
			z M156.8,150.3v0.5l-1.2-0.3l0.4-0.4L156.8,150.3z M155.5,148.8v0.3l-1.9,1l-4.6-1v-1.7L155.5,148.8z M155.2,150.9l2.2,0.5l0,0.7
			l-2.7-0.6L155.2,150.9z M147,151.9v0.7l-1.1,0.6l-0.3-1.4H147z M144.2,149.1l-0.3-0.7l3.6,0.8v0.6L144.2,149.1z M148,153.7h0.4
			v0.9h-2L148,153.7z M147.5,148.7l-3.8-0.8L143,146l4.6,1V148.7z M142.5,144.4l-0.4-1.1l5.4,1.2l0,1L142.5,144.4z M127.2,146v-1.5
			l2.8,1v0.9h-0.9V146H127.2z M127.2,144v-0.6l2.8-1.4v2.9L127.2,144z M127.2,142.9v-1.1h1.5l0.8,0L127.2,142.9z M128.1,137
			l-3.4-4.4l1.1-5.8l5,9.3v0.8L128.1,137z M131.2,143.5l0.4,0.4l-1.2,0.4v-0.9H131.2z M130.4,144.9l1.5-0.6l0.4,0.4l-0.6,0.8h-1.2
			V144.9z M131.4,141.6l2.1-0.1l0.8,1.4l-0.3,0.3h-1.2L131.4,141.6z M133.3,155.6l1.4-6.1l0.7,0.5l0.4,5.5L133.3,155.6z M136,156.4
			l0.1,1.6l-3.7,1.7l0.7-3.2L136,156.4z M134,122.9v-0.7l0-0.2l6.8,8.5l-2.1,4.4L134,122.9z M140.1,142.4l-2.7-0.6v-1.8l1-2
			L140.1,142.4z M140.3,142.9l0.4,1.1l-1.4-0.3v-1L140.3,142.9z M139.4,145.2l1.9,0.4l0.7,1.8h-1.7l-0.9-0.7V145.2z M142.2,147.9
			l0.4,0.9l-1.3-0.3l-0.4-0.6H142.2z M141.8,142.8l-0.5-1.3l5.2-2.5l0.8,1l0.1,4L141.8,142.8z M146.5,138L146.5,138l-5.5,2.6
			l-1.8-4.5l2.3-4.8l5,6.3V138z M141.3,128.8l-7.8-9.7l-0.2-3.4v0l0-0.2l8.4-4.2l5.4,5.9l-5.5,11.6
			C141.5,128.8,141.4,128.8,141.3,128.8z M134.5,100l0.3,0.5l-0.3,0.9H134l-0.7-0.7l-0.1-0.8H134.5z M133.1,98.8l-0.1-1.3l1.7,0.7
			V99L133.1,98.8z M134.5,104.6h1.1l5.4,6l-7.8,4l-0.4-4.2l1.2-4.2L134.5,104.6z M136.8,100.8l2.7,5.8v0.5h-0.3l-2.9-3.2l-0.1-0.2
			l-1-1.2l0.6-2l0.8,0.1v0L136.8,100.8z M151.2,104.1c0.3,0.1,0.6,0.2,0.8,0.3l0,0.6l-9.5,4.8l-3.9-8.6L151.2,104.1z M138.2,100.1
			l-0.3-1c2.2,0.8,4,1.5,5.6,2.1v0.1L138.2,100.1z M149.4,101.9l1.9-1.1l0.8,1.4v0.7C151.5,102.7,150.6,102.4,149.4,101.9z
			 M148.9,101.7c-3.1-1.2-7.5-2.8-11.2-4.2l-0.1-1.4l1.7-6l4.7-2.7l7.2,13L148.9,101.7z M142.6,110.9l9.8-5l0,0l-4.9,10.4
			L142.6,110.9z M153,106.8l1.3,1.4l3.7,19.2h-0.4l-9.4-10.4L153,106.8z M156.1,110.3h0.1l0.7,0.9l1.5,3.1l2.9,5.9l0.3,0.7l-3.1,1.4
			L156.1,110.3z M158.6,122.8l3.2-1.5l1.7,3.8l1.9,4.1l-4.2,2l-1.2-1.1L158.6,122.8z M165.3,127.3l-0.5-0.9l0.6-0.3l0.5,0.9
			L165.3,127.3z M166.2,127.5l0.5,0.9l-0.7,0.3l-0.5-0.9L166.2,127.5z M165.6,129.7l0.6,1.2l3.2,6.7l1.8,3.9v0.8h-0.4l-9.1-10.2
			l-0.2-0.5L165.6,129.7z M170.6,138.5l-0.5-0.9l1.1-0.6l0.5,0.9L170.6,138.5z M169.9,137.1l-0.5-0.9l1.1-0.5l0.5,0.9L169.9,137.1z
			 M169.2,135.7l-0.5-0.9l1-0.5l0.5,0.9L169.2,135.7z M168.6,134.3l-0.5-0.9l0.9-0.5l0.5,0.9L168.6,134.3z M167.9,132.9l-0.5-0.9
			l0.9-0.4l0.5,0.9L167.9,132.9z M167.3,131.5l-0.5-0.9l0.8-0.4l0.5,0.9L167.3,131.5z M166.6,130.1l-0.5-0.9l0.7-0.4l0.5,0.9
			L166.6,130.1z M166.5,125.1l-0.5-0.9l0.4-0.2l0.5,0.9L166.5,125.1z M165.7,123.7l-0.5-0.9l0.5-0.3l0.5,0.9L165.7,123.7z
			 M165,122.4l-0.5-0.9l0.7-0.3l0.5,0.9L165,122.4z M164.2,121l-0.5-0.9l0.8-0.4l0.5,0.9L164.2,121z M163.5,119.7l-0.5-0.9l0.9-0.4
			l0.5,0.9L163.5,119.7z M162.7,118.4l-0.4-0.7l-0.1-0.2l1-0.5l0.5,0.9L162.7,118.4z M161.9,117l-0.5-0.9l1.1-0.5l0.5,0.9L161.9,117
			z M161.2,115.7l-0.5-0.9l1.1-0.6l0.5,0.9L161.2,115.7z M160.4,114.2l-0.5-0.9l1.2-0.6l0.5,0.9L160.4,114.2z M159.7,112.9l-0.5-0.9
			l1.2-0.6l0.5,0.9L159.7,112.9z M158.9,111.5l-0.5-0.9l1.3-0.7l0.5,0.9L158.9,111.5z M158.2,110.2l-0.5-0.9l1.4-0.7l0.5,0.9
			L158.2,110.2z M157.5,108.8L157,108l1.5-0.8l0.5,0.9L157.5,108.8z M156.7,107.5l-0.5-0.9l1.6-0.8l0.5,0.9L156.7,107.5z M156,106.1
			l-0.1-0.1l-0.4-0.8l1.6-0.8l0.5,0.9L156,106.1z M155.3,104.8l-0.4-0.9l1.7-0.9l0.5,0.9L155.3,104.8z M154.6,103.4l-0.5-0.9
			l1.7-0.9l0.5,0.9L154.6,103.4z M153.9,102l-0.5-0.9l1.7-0.9l0.5,0.9L153.9,102z M153.3,100.6l-0.5-0.9l1.7-0.9l0.5,0.9
			L153.3,100.6z M152.6,99.2l-0.5-0.9l1.7-0.9l0.5,0.9L152.6,99.2z M152,97.8l-0.5-0.9l1.7-0.9l0.5,0.9L152,97.8z M151.3,96.4
			l-0.5-0.9l1.7-0.9l0.5,0.9L151.3,96.4z M150.6,95l-0.5-0.9l1.7-0.9l0.5,0.9L150.6,95z M150,93.6l-0.5-0.9l1.7-0.9l0.5,0.9
			L150,93.6z M149.3,92.2l-0.5-0.9l1.7-0.9l0.5,0.9L149.3,92.2z M148.7,90.8l-0.5-0.9l1.7-0.9l0.5,0.9L148.7,90.8z M148,89.4
			l-0.5-0.9l1.7-0.9l0.5,0.9L148,89.4z M147.4,88l-0.5-0.9l1.7-0.9l0.5,0.9L147.4,88z M146.7,86.6l-0.5-0.9l1.7-0.9l0.5,0.9
			L146.7,86.6z M146,85.3l-0.5-0.9l1.7-0.9l0.5,0.9L146,85.3z M145.4,83.9l-0.5-0.9l1.7-0.9l0.5,0.9L145.4,83.9z M144.7,82.5
			l-0.5-0.9l1.7-0.9l0.5,0.9L144.7,82.5z M144.1,81.1l-0.5-0.9l1.7-0.9l0.5,0.9L144.1,81.1z M143.4,79.7l-0.5-0.9l1.7-0.9l0.5,0.9
			L143.4,79.7z M142.8,78.3l-0.5-0.9l1.7-0.9l0.5,0.9L142.8,78.3z M142.5,84.9l1.2,2.2l-4.3,2.4l1.6-5.6L142.5,84.9z M140.5,72.3
			l-4-1l-0.1-0.9l4.1,1.1V72.3z M140.5,71.1l-4.2-1.1l-1.5-2.6l5.7,1.4V71.1z M135.1,83.4l4.1-2.5h0.8v1.3l0,0l-4.1,14.3
			c-0.4,0-1.1,0.1-1.1,0.1l-2-0.7l0-0.1l-0.2-2.1L135.1,83.4z M132.6,101.3l1.4,1.5l-1.1,3.6h-0.5l-0.3-2.9v0L132,103h0l-0.2-1.6
			H132.6z M132.2,122.9l0.4,0.5l0,0l0.5,1.3L134,139l-7.2-13.4L132.2,122.9z M128.8,117.1v1.2l-1.3,1.8H127v-0.6l0.6-2.8
			L128.8,117.1z M127.8,115.8l0.4-1.8h0.7l0.8,2.1l-0.8,0.1L127.8,115.8z M129.2,122.3l-1.6-0.2v-1l2.1-3.2l0.8,0l0,0l1.2,3.1
			L129.2,122.3z M131,113.8h-0.4l-1.4-3.6l1.4-5.7h0.2l0.7,7.3L131,113.8z M129.6,102.1l-1.4,5.9l-2.1-5.2l3-1.6h0.5V102.1z
			 M129.1,99.3h-0.4h-0.4h-1.5l-0.3,0.3v0.8l-1.1,0.6l0.1-0.1l-2.1-5.5v-0.2l5.9,3L129.1,99.3z M124,101.7l-1.4,0.7H121l-0.3,0.3
			v0.7l-1,0.5l-0.2-9.8l0,0l0.5-0.6h0.7L124,101.7z M120.9,66.8v-0.5h0.7v0.5H120.9z M121.7,65.6c-0.5,0-1.2,0-1.2,0l-0.8,0.5l0-0.3
			l0.1-2.2l0.5-0.4l1.5,1.1V65.6z M119.5,61.4v-0.2c0.8-0.6,1.5-0.5,2-0.4V63L119.5,61.4z M118.8,62.4v1.2l-0.7,0.4
			c-0.2-1,0-1.8,0.1-2.4l0.3,0.2L118.8,62.4z M118.7,64.2l-0.1,1.2h-0.2c-0.1-0.3-0.2-0.6-0.3-0.9L118.7,64.2z M118.2,66.9l-0.8,0.5
			l-1.2-1.1l-0.1-0.5l1.3-0.8C117.5,65.6,117.8,66.3,118.2,66.9z M118.1,90.7v0.9l-1.4-0.8l0.1-0.6L118.1,90.7z M115.4,65.7
			l-0.9-0.8l0.4-1.2l2.1-1.2c0,0.6,0,1.2,0.1,2L115.4,65.7z M114.8,65.8L115,66l-0.8,0.5l0,0v-0.7H114.8z M115.4,66.3l1.2,1.1
			l-0.4,0.1l-1.4-0.8L115.4,66.3z M117.9,95.2h0.5l0.1,0l0.2,9.3l-1.9,1h-1.5l-0.3,0.3v0.6l-3.7,2h-0.9l0-0.8L117.9,95.2z
			 M124.8,103.4l3,7.7l-0.9,4.4l-16.8-4.2v-0.1L124.8,103.4z M124.7,134.4l2.1,2.7l-3.1,0.2l0.6-2.9H124.7z M124.1,144.4l-0.9,0.5
			l-0.1-2v-0.2h0.6L124.1,144.4z M124.2,144.9l0.5,2.3h-0.1h-1.4l-0.1-1.8L124.2,144.9z M124.8,147.7l0.1,0.7l-1.7,0.5l0-1.2H124.8z
			 M124.7,142.7l0.2-0.9h1.7v1.4L125,144L124.7,142.7z M126.7,143.6v2.3h-0.2v1.3h-0.8l-0.6-2.8L126.7,143.6z M132.1,161l4.1-1.9
			l0.3,3.9l-4.6-1L132.1,161z M136.3,140h-0.8l0-0.6h1.1L136.3,140z M135.5,138.9l-0.5-8.2h0.6l2.3,5.9l-1.1,2.2H135.5z
			 M137.4,142.3l1.5,0.3v1l-0.6-0.1h-0.9V142.3z M138.9,145.1v1.2l-0.5-0.5V145L138.9,145.1z M138.1,150.2l1.1,0.2l2.4,4.1h-0.5
			l-3-4.1V150.2z M140.6,151v-0.2h1.2l2.6,2.5v0.9l-1.4,0.8L140.6,151z M144.8,155.6l0.6,1l2.2,5.2v0.8h-0.5l-2.5-3.5l-1.2-2.9
			L144.8,155.6z M147.4,157.6l0.1-0.5l1.2,0.9l0-0.3v2.6h-0.2L147.4,157.6z M142.1,129.9l5.3-11.3l9.5,27.5l-2-0.5L142.1,129.9z
			 M149.1,140.9l3.5,4.3l-3.8-0.9l-0.1-3.5H149.1z M153.1,145.8l1,1.2l-5.2-1.2l0-1L153.1,145.8z M149,149.5l3.9,0.9l-0.9,0.4
			l-3-0.7V149.5z M149.8,152.7l0.2-0.2l4.4,1.1l0,0.3l-4.6,0.6L149.8,152.7z M160.2,152.7l-0.3-0.7l2.8,0.6l0.1,0.7L160.2,152.7z
			 M162.7,157.6l1.1,2.1l-1,0.4l-0.9-2.5H162.7z M166.3,149.7l-2.7-0.6l-0.2-1l2.9,0.7V149.7z M166.4,151.2v1.9c-0.3,0-0.6,0-0.7,0
			c-0.1,0-1.3-0.3-1.3-0.3l-0.4-2.1L166.4,151.2z M164.2,160.6l1.3,2.5l0.9,5.8h-0.6l-2.6-7.8L164.2,160.6z M166.2,158.9l-1.2-2.3
			V156l0.2,0l3.9,0.9l0.7,0.1v0.4l-3,1.6H166.2z M166.8,149.8v-0.9l6.2,1.4v0.9L166.8,149.8z M171.4,152.3v0.6l-0.5,0.1h-0.4v-1
			L171.4,152.3z M170,152v1.1h-2.8c0,0-0.1,0-0.3,0v-1.8L170,152z M169.1,154.6V154l4.1-0.2v1.8L169.1,154.6z M163.3,147.6
			l-2.4-12.7h0.6l8.2,8.3l0,0l3.9,3.6l1,1.8v0.9l-1.5,0.3L163.3,147.6z M175.5,153.7l1.2,0.1v0.8l-1.2,0.5V153.7z M175.7,148
			l-0.5-0.9l1.1-0.6l0.5,0.9L175.7,148z M176.6,139.2l-2.1,0.8l-1-2.5l-3.3-7.3l1.9-0.8L176.6,139.2z M171.9,129l-1.9,0.7l-0.2-0.5
			l-4.3-9.1l1.9-0.8L171.9,129z M167.2,118.8l-2,0.7l-1.2-2.6l-3.3-7.3l1.9-0.8L167.2,118.8z M162.3,108.3l-1.9,0.7l-2.4-5.4l-2-4.2
			l1.8-0.8L162.3,108.3z M157.6,98.1l-1.9,0.6l-3-6.5l-1.6-3.4l1.8-0.8L157.6,98.1z M152.7,87.6l-1.9,0.7l-1.3-2.7l-3.3-7.2l1.8-0.8
			L152.7,87.6z M143.9,68.7l3.9,8.4l-1.9,0.6l-1.5-3.2c-0.1-0.3-0.4-0.5-0.6-0.6V68.7z M143.8,76l-1.7,0.9l-0.5-0.9l1.7-0.9
			L143.8,76z M143.1,67.1c0,0,0.1,0.2,0.2,0.3l0.1,0.3v1.4l-8.9-2.3l-1.5-2.6L143.1,67.1z M133.3,84.3h0.6l-2.3,9.3h-0.4l-0.7-7.7
			L133.3,84.3z M130.1,97.5h-0.5l-6.4-3.3v-0.6l6.7,2.7L130.1,97.5z M121.7,91.4v-0.6l6.4-3.7h1l0.7,7.6L121.7,91.4z M129.7,62
			c-1.3-2-3.4-3.4-3.5-3.5l0,0c-2-1.2-3.9-1.4-5.6-0.8c-1.6,0.6-2.6,2-3.1,3c-0.6,0-1.1,0-1.5,0.1l5.2-15.7l8,11.2L129.7,62z
			 M128.9,54.3l-6.9-9.6v-1.1l5.4-3.4L128.9,54.3z M126.4,38.9h0.6v0.5L114.9,47l-0.7-0.4L126.4,38.9z M114,67h0.5l0,0l1.7,1
			l-2.2,1.3V67z M112.6,89.5c0.2,0.1,2.3,1.2,2.3,1.2l-5.6,15.3h-0.7l0.7-15.3c0.6-0.4,2-1.2,2-1.2S112.4,89.4,112.6,89.5z
			 M108,73.5L108,73.5l2.6-1.6l0.3,0.1v0.6l-2.2,1.3l-0.5-0.3C108.1,73.7,108,73.6,108,73.5z M108,73.6L108,73.6
			C108,73.6,108,73.6,108,73.6C108,73.6,108,73.6,108,73.6z M112,70.3l-0.3,0.6l-0.1,0l-3.2-0.4l2.5-1.5L112,70.3z M109.8,67.1
			l1.3-0.8h0.4v1.8l-0.6,0.3L109.8,67.1z M112,69.6L112,69.6l-0.8-0.8l0.3-0.2l0.4,0.5V69.6z M109.2,65.5c0.7-0.5,1.6-0.8,2.5-0.9
			l-0.1,0.8l-2.1,1.3l-0.7-0.8C108.9,65.8,109.1,65.7,109.2,65.5z M108.5,66.3l0.6,0.7l-1.4,0.9C107.8,67.3,108.1,66.7,108.5,66.3z
			 M101.5,72.2l5-3.1c0,0.1,0,0.2,0,0.3c0,0.6,0,1.1,0,1.6c0,0,0,0.1,0,0.1l-5,3.1V72.2z M101.5,74.8l5-3.1c0,0.4,0.1,0.7,0.2,1.1
			c0.1,0.2,0.1,0.6,0.2,0.8l-5.4,3.3V74.8z M96,75.8c-0.1,0-0.2-0.1-0.2-0.1l5.2-3.2v2l-2.9,1.8L96.5,76L96,75.8z M96.7,78.7v-0.9
			l1.5-0.9l2.5,0.5l-2.5,1.5L96.7,78.7z M97.5,79.3l-0.8,0.5v-0.6L97.5,79.3z M96.7,77.2v-0.7l0.8,0.2L96.7,77.2z M98.8,76.5
			l2.2-1.3v1.8L98.8,76.5z M97.3,81c0,0-0.3,0-0.6,0v-0.7l1.4-0.9l0.8,0.5L97.3,81z M99.6,79.7l-0.8-0.6l2.2-1.3l0.8,0.5L99.6,79.7z
			 M102.7,77.7l-0.8-0.5l5.1-3.1l0,0c0.1,0.2,0.2,0.5,0.4,0.7L102.7,77.7z M107.5,68.5l1.9-1.2l1.2,1.3l-2.9,1.8l-0.2,0
			C107.4,69.8,107.4,69.1,107.5,68.5z M107.8,73.1c-0.1-0.2-0.1-0.3-0.1-0.5c-0.1-0.5-0.1-0.9-0.2-1.4l0.3-0.2l2.3,0.3v0.4
			L107.8,73.1z M108.3,116.1h0.4l4.7,14.2l-1.1,0.6h-1.8l-0.4,0.4v0.7l-2.5,1.3L108.3,116.1z M104.7,158l-2.9-5l3,0.8L104.7,158z
			 M106.1,176.9l-0.7,0.3v-20.8l0.7,0.3V176.9z M106.2,155.6l-0.8-0.3V154l0.8,0.3V155.6z M107.4,135.5l5-2.5l-4.8,15.3h-0.8
			L107.4,135.5z M107.1,161.9v-2l1.6,0.3v0.8L107.1,161.9z M108.7,162.1v2.1l-1.1-1.5v-0.4L108.7,162.1z M107.1,162.1L107.1,162.1
			L107.1,162.1L107.1,162.1z M107.1,165.6l1.6,2.9v7.4l-1.6,0.7V165.6z M107.2,178.3l1.6,0.2v2.5l-1.6-0.5V178.3z M108.9,183.6
			l-1,0.4l-0.5,0v-2.3l1.5,0.5V183.6z M110,175.3l-0.8,0.3v-6.4l0.8,0.9V175.3z M110,166.1l-0.8-0.8v-2.8l0.8,0.7V166.1z
			 M110.2,147.2h-0.7l4.4-14h0.3l2,5.7l-4.5,7.5C110.6,146.6,110.2,147.2,110.2,147.2z M113.1,181.3h-0.1l-0.1-2.2l0.7,0.1
			L113.1,181.3z M113.7,178.3l-1-0.2v-2.2h1.5L113.7,178.3z M113.5,174.6v-0.3h-1V167l3.1,3.1l-1,4.8L113.5,174.6z M114.6,181.1
			l0.3-1.6l0.8,0.2l0,0.9L114.6,181.1z M117.3,158.9v-1.6h1.1l-0.8,1.6H117.3z M117.9,162.2l0.4-0.4l1.4,0.8l0,0.6h-1.8L117.9,162.2
			z M119.6,159.9h-1.1v-0.6l1-2h0.1v0.3L119.6,159.9z M119.6,160.9l0,0.6l-1-0.6H119.6z M117.9,164.2h1.8l0.1,9.6l-1.7-1.7
			L117.9,164.2z M118.1,173.4l1.7,1.6l0,0.3h-1.6L118.1,173.4z M118.2,179.6L118.2,179.6l0-2.8h1.6l0,2.1L118.2,179.6z M122.3,137.5
			c-2.5,0.4-3.7,2.3-3.7,3.5c0,0.2,0,0.6,0,1.1h-0.4l-1.1-3.1l4.3-7.2l1.1,3.9L122.3,137.5z M123.8,127.9l0.3,0.1l-0.6,3l-0.9-1.1
			L123.8,127.9z M122.8,155.1l2.9-1.4l0.4,2.3l-3.3,0.1L122.8,155.1z M122.9,157l3.4-0.2l0.8,4.1l-3.5-0.7l-0.7-2.3L122.9,157z
			 M125.9,176.2l-2.2,1l0,0l0-1.2c0.1,0,0.3,0,0.4,0c0.6,0,1.2,0,1.8,0V176.2z M125.9,175c-0.8,0-1.7,0-2.3,0l-0.4-11.3l2.7,9.1V175
			z M127.7,173.9l-3.6-12l3.3,0.7l1.3,7.1L127.7,173.9z M128.4,162.8l1.8,0.4l-0.9,4.2L128.4,162.8z M136.8,172l-6.3,2.4l-0.7-3.5
			l1.7-7.4l5.1,1.1l0.6,7.2L136.8,172z M137,150.9l0.1-0.2l3.3,4.5l-3.1,0.1L137,150.9z M137.4,156.4l1.2-0.1l0.3,0.5l-1.4,0.6
			L137.4,156.4z M137.6,158.5l3.9-1.8l2.8,3.6l1.8,4.7l-7.2-1.5c-0.1-0.4-0.6-0.6-0.9-0.7L137.6,158.5z M138.6,170.7l-0.5-5.6
			c0.3-0.1,0.5-0.3,0.6-0.5l7.7,1.6l0.8,2.3l-2.6,3.5L138.6,170.7z M146.2,172.3l3-4.1c0.7,1.9,1.5,3.9,2,5.1L146.2,172.3z
			 M153.5,173.7c-0.1-0.3-0.2-1-0.4-1.9l2.3,2.3L153.5,173.7z M157.7,174.5l-4.1-5.8h-1.2c-0.2-0.8-0.4-1.6-0.6-2.3v0
			c-0.1-0.2-0.1-0.4-0.2-0.5l3.3-1.4l11.4,11.8L157.7,174.5z M166.4,175l-10.5-10.9l6.2-2.6l4.4,12.4V175z M172.3,157.4l0.2,0l3,0.6
			c0.3,0,0.8-0.2,0.8-0.2l1.2-0.6l-5.4,10.3l-4.2-5.2l-1.2-1.6l-0.2-1.4L172.3,157.4z M168,173.1l-1.5-10l0.1,0l4.9,5.9l-2.9,5.7
			L168,173.1z M169.7,176.9l-0.6-0.6l3.2-6.2l7.1,8.7L169.7,176.9z M181.7,179.3l-8.6-10.5l6.8-13c0.2,0,0.5,0,0.7,0l3.7,24
			L181.7,179.3z M182.7,159.5l8.2,16.6l-5.2,2.1L182.7,159.5z M186,180.1l-0.2-1l5.5-2.2l2.3,4.7L186,180.1z M193.2,174l0.4-0.2
			l0.5,0.9l-0.4,0.2L193.2,174z M194,175.3l0.3-0.2l0.5,0.9l-0.3,0.1L194,175.3z M195.3,177.5l-0.5-0.9l0.2-0.1l0.5,0.9L195.3,177.5
			z M195.6,177.9l0.4,0.9l-0.1,0l-0.5-0.9L195.6,177.9z"/>
	</g>
	<g>
		<path fill="#E9EAEA" d="M39,114.2c0,2.4-2.2,4.7-4.6,4.7H0V86.1c0-2.4,3-4.3,5.5-4.3H39V114.2z"/>
		<path fill="#6DAE32" d="M40,112.4c0,2.4-1.4,4.4-3.8,4.4H2V84.4c0-2.4,2.8-4.5,5.2-4.5H40V112.4z"/>
	</g>
	<g>
		<path fill="#D4D5D5" stroke="#D4D5D5" stroke-miterlimit="10" d="M48.7,88.4h5.5c1.3,0,2.4,0.4,3.1,1c0.5,0.5,0.8,1.2,0.8,2v0
			c0,1.3-0.7,2.1-1.5,2.5c1.4,0.5,2.2,1.3,2.2,2.9v0c0,2.1-1.7,3.2-4.4,3.2h-5.6V88.4z M53.6,93.1c1.1,0,1.9-0.4,1.9-1.2v0
			c0-0.8-0.6-1.2-1.7-1.2h-2.6v2.5H53.6z M54.3,97.9c1.1,0,1.8-0.4,1.8-1.3v0c0-0.8-0.6-1.3-1.9-1.3h-3v2.6H54.3z"/>
		<path fill="#D4D5D5" stroke="#D4D5D5" stroke-miterlimit="10" d="M60.6,91.1h2.6V93c0.5-1.2,1.4-2,2.9-2v2.7h-0.1
			c-1.7,0-2.7,1-2.7,3.2v3.3h-2.6V91.1z"/>
		<path fill="#D4D5D5" stroke="#D4D5D5" stroke-miterlimit="10" d="M67.6,87.9h2.7v2.3h-2.7V87.9z M67.7,91.1h2.6v9h-2.6V91.1z"/>
		<path fill="#D4D5D5" stroke="#D4D5D5" stroke-miterlimit="10" d="M72.7,91.1h2.6v1.3c0.6-0.8,1.4-1.4,2.7-1.4
			c1.2,0,2.1,0.5,2.5,1.4c0.8-0.9,1.7-1.4,3-1.4c1.9,0,3,1.1,3,3.3v5.9h-2.6v-5c0-1.2-0.5-1.8-1.5-1.8c-1,0-1.5,0.6-1.5,1.8v5h-2.6
			v-5c0-1.2-0.5-1.8-1.5-1.8c-1,0-1.5,0.6-1.5,1.8v5h-2.6V91.1z"/>
		<path fill="#D4D5D5" stroke="#D4D5D5" stroke-miterlimit="10" d="M87.9,99l1.1-1.7c1,0.7,2,1.1,2.8,1.1c0.7,0,1.1-0.3,1.1-0.7v0
			c0-0.6-0.9-0.7-1.9-1c-1.3-0.4-2.7-1-2.7-2.7v0c0-1.8,1.5-2.9,3.3-2.9c1.1,0,2.4,0.4,3.4,1l-1,1.8c-0.9-0.5-1.8-0.8-2.4-0.8
			c-0.6,0-0.9,0.3-0.9,0.6v0c0,0.5,0.9,0.7,1.8,1.1c1.3,0.4,2.7,1,2.7,2.7v0c0,2-1.5,2.9-3.4,2.9C90.5,100.3,89.1,99.9,87.9,99z"/>
		<path fill="#D4D5D5" stroke="#D4D5D5" stroke-miterlimit="10" d="M97.3,97.6v-4.3h-1.1v-2.2h1.1v-2.3h2.6v2.3h2.1v2.2h-2.1v3.8
			c0,0.6,0.3,0.9,0.8,0.9c0.5,0,0.9-0.1,1.3-0.3v2c-0.5,0.3-1.2,0.5-2,0.5C98.3,100.3,97.3,99.7,97.3,97.6z"/>
		<path fill="#D4D5D5" stroke="#D4D5D5" stroke-miterlimit="10" d="M103.1,95.7L103.1,95.7c0-2.6,2.1-4.7,4.9-4.7
			c2.8,0,4.9,2.1,4.9,4.7v0c0,2.6-2.1,4.7-4.9,4.7C105.2,100.3,103.1,98.3,103.1,95.7z M110.4,95.7L110.4,95.7c0-1.4-1-2.5-2.4-2.5
			c-1.5,0-2.3,1.1-2.3,2.5v0c0,1.3,1,2.5,2.4,2.5C109.5,98.1,110.4,97,110.4,95.7z"/>
		<path fill="#D4D5D5" stroke="#D4D5D5" stroke-miterlimit="10" d="M114.7,91.1h2.6v1.3c0.6-0.8,1.3-1.4,2.6-1.4
			c1.9,0,3.1,1.3,3.1,3.3v5.8h-2.6v-5c0-1.2-0.6-1.8-1.5-1.8c-1,0-1.6,0.6-1.6,1.8v5h-2.6V91.1z"/>
		<path fill="#D4D5D5" stroke="#D4D5D5" stroke-miterlimit="10" d="M124.7,95.7L124.7,95.7c0-2.6,1.8-4.7,4.4-4.7
			c3,0,4.4,2.3,4.4,4.9c0,0.2,0,0.4,0,0.7h-6.3c0.3,1.2,1.1,1.8,2.2,1.8c0.9,0,1.5-0.3,2.2-0.9l1.5,1.3c-0.8,1-2,1.7-3.7,1.7
			C126.7,100.3,124.7,98.4,124.7,95.7z M131.1,94.9c-0.1-1.1-0.8-1.9-1.9-1.9c-1.1,0-1.7,0.8-1.9,1.9H131.1z"/>
		<path fill="#D4D5D5" stroke="#D4D5D5" stroke-miterlimit="10" d="M140.8,88.4h2.8l3.1,5l3.1-5h2.8v11.8H150v-7.7l-3.3,5h-0.1
			l-3.3-5v7.6h-2.5V88.4z"/>
		<path fill="#D4D5D5" stroke="#D4D5D5" stroke-miterlimit="10" d="M155.1,87.9h2.7v2.3h-2.7V87.9z M155.2,91.1h2.6v9h-2.6V91.1z"/>
		<path fill="#D4D5D5" stroke="#D4D5D5" stroke-miterlimit="10" d="M160.1,91.1h2.6v1.3c0.6-0.8,1.3-1.4,2.6-1.4
			c1.9,0,3.1,1.3,3.1,3.3v5.8h-2.6v-5c0-1.2-0.6-1.8-1.5-1.8c-1,0-1.6,0.6-1.6,1.8v5h-2.6V91.1z"/>
		<path fill="#D4D5D5" stroke="#D4D5D5" stroke-miterlimit="10" d="M170.7,87.9h2.7v2.3h-2.7V87.9z M170.7,91.1h2.6v9h-2.6V91.1z"/>
		<path fill="#D4D5D5" stroke="#D4D5D5" stroke-miterlimit="10" d="M175.7,91.1h2.6v1.3c0.6-0.8,1.3-1.4,2.6-1.4
			c1.9,0,3.1,1.3,3.1,3.3v5.8h-2.6v-5c0-1.2-0.6-1.8-1.5-1.8c-1,0-1.6,0.6-1.6,1.8v5h-2.6V91.1z"/>
		<path fill="#D4D5D5" stroke="#D4D5D5" stroke-miterlimit="10" d="M186.2,101.9l0.9-1.9c0.9,0.5,1.8,0.8,3,0.8
			c1.7,0,2.6-0.8,2.6-2.5v-0.4c-0.8,0.9-1.6,1.5-2.9,1.5c-2.1,0-4-1.5-4-4.2v0c0-2.7,1.9-4.2,4-4.2c1.4,0,2.2,0.6,2.9,1.3v-1.2h2.6
			v7c0,1.6-0.4,2.8-1.1,3.5c-0.8,0.8-2.1,1.2-3.9,1.2C188.7,102.9,187.3,102.5,186.2,101.9z M192.7,95.2L192.7,95.2
			c0-1.3-1-2.1-2.2-2.1c-1.2,0-2.2,0.9-2.2,2.1v0c0,1.2,0.9,2.1,2.2,2.1C191.7,97.3,192.7,96.4,192.7,95.2z"/>
		<path fill="#D4D5D5" stroke="#D4D5D5" stroke-miterlimit="10" d="M196.8,101.8c1.2-0.1,1.7-0.7,1.6-1.7h-1v-2.7h2.7v2.3
			c0,2.2-1.1,3.1-3.1,3.1L196.8,101.8z"/>
		<path fill="#D4D5D5" stroke="#D4D5D5" stroke-miterlimit="10" d="M205.8,92.5h1.7v7.6h-1.7V92.5z"/>
		<path fill="#D4D5D5" stroke="#D4D5D5" stroke-miterlimit="10" d="M209.2,94.3h1.7v0.8c0.4-0.5,0.9-0.9,1.7-0.9c1.3,0,2,0.8,2,2.2
			v3.8h-1.7v-3.3c0-0.8-0.4-1.2-1-1.2c-0.6,0-1,0.4-1,1.2v3.3h-1.7V94.3z"/>
		<path fill="#D4D5D5" stroke="#D4D5D5" stroke-miterlimit="10" d="M215.7,97.3L215.7,97.3c0-1.7,1.3-3.1,3.1-3.1
			c1.1,0,1.8,0.4,2.3,1l-1,1.1c-0.4-0.4-0.7-0.6-1.3-0.6c-0.8,0-1.4,0.7-1.4,1.6v0c0,0.9,0.6,1.6,1.5,1.6c0.6,0,0.9-0.2,1.3-0.6l1,1
			c-0.6,0.6-1.2,1.1-2.4,1.1C217,100.3,215.7,98.9,215.7,97.3z"/>
		<path fill="#D4D5D5" stroke="#D4D5D5" stroke-miterlimit="10" d="M222.2,98.4h1.8v1.7h-1.8V98.4z"/>
	</g>
	<g>
		<path fill="#FFFFFF" stroke="#FFFFFF" stroke-miterlimit="10" d="M49.6,87.6H55c1.3,0,2.4,0.4,3.1,1c0.5,0.5,0.8,1.2,0.8,2v0
			c0,1.3-0.7,2.1-1.5,2.5c1.4,0.5,2.2,1.3,2.2,2.9v0c0,2.1-1.7,3.2-4.4,3.2h-5.6V87.6z M54.5,92.3c1.1,0,1.9-0.4,1.9-1.2v0
			c0-0.8-0.6-1.2-1.7-1.2h-2.6v2.5H54.5z M55.1,97c1.1,0,1.8-0.4,1.8-1.3v0c0-0.8-0.6-1.3-1.9-1.3h-3V97H55.1z"/>
		<path fill="#FFFFFF" stroke="#FFFFFF" stroke-miterlimit="10" d="M61.4,90.3H64v1.8c0.5-1.2,1.4-2,2.9-2v2.7h-0.1
			c-1.7,0-2.7,1-2.7,3.2v3.3h-2.6V90.3z"/>
		<path fill="#FFFFFF" stroke="#FFFFFF" stroke-miterlimit="10" d="M68.5,87h2.7v2.3h-2.7V87z M68.5,90.3h2.6v9h-2.6V90.3z"/>
		<path fill="#FFFFFF" stroke="#FFFFFF" stroke-miterlimit="10" d="M73.5,90.3H76v1.3c0.6-0.8,1.4-1.4,2.7-1.4
			c1.2,0,2.1,0.5,2.5,1.4c0.8-0.9,1.7-1.4,3-1.4c1.9,0,3,1.1,3,3.3v5.9h-2.6v-5c0-1.2-0.5-1.8-1.5-1.8c-1,0-1.5,0.6-1.5,1.8v5h-2.6
			v-5c0-1.2-0.5-1.8-1.5-1.8c-1,0-1.5,0.6-1.5,1.8v5h-2.6V90.3z"/>
		<path fill="#FFFFFF" stroke="#FFFFFF" stroke-miterlimit="10" d="M88.7,98.1l1.1-1.7c1,0.7,2,1.1,2.8,1.1c0.7,0,1.1-0.3,1.1-0.7v0
			c0-0.6-0.9-0.7-1.9-1c-1.3-0.4-2.7-1-2.7-2.7v0c0-1.8,1.5-2.9,3.3-2.9c1.1,0,2.4,0.4,3.4,1l-1,1.8c-0.9-0.5-1.8-0.8-2.4-0.8
			c-0.6,0-0.9,0.3-0.9,0.6v0c0,0.5,0.9,0.7,1.8,1.1c1.3,0.4,2.7,1,2.7,2.7v0c0,2-1.5,2.9-3.4,2.9C91.3,99.5,89.9,99.1,88.7,98.1z"/>
		<path fill="#FFFFFF" stroke="#FFFFFF" stroke-miterlimit="10" d="M98.1,96.8v-4.3H97v-2.2h1.1V88h2.6v2.3h2.1v2.2h-2.1v3.8
			c0,0.6,0.3,0.9,0.8,0.9c0.5,0,0.9-0.1,1.3-0.3v2c-0.5,0.3-1.2,0.5-2,0.5C99.2,99.5,98.1,98.8,98.1,96.8z"/>
		<path fill="#FFFFFF" stroke="#FFFFFF" stroke-miterlimit="10" d="M104,94.9L104,94.9c0-2.6,2.1-4.7,4.9-4.7c2.8,0,4.9,2.1,4.9,4.6
			v0c0,2.6-2.1,4.7-4.9,4.7C106,99.5,104,97.4,104,94.9z M111.2,94.9L111.2,94.9c0-1.4-1-2.5-2.4-2.5c-1.5,0-2.3,1.1-2.3,2.5v0
			c0,1.3,1,2.5,2.4,2.5C110.3,97.3,111.2,96.2,111.2,94.9z"/>
		<path fill="#FFFFFF" stroke="#FFFFFF" stroke-miterlimit="10" d="M115.6,90.3h2.6v1.3c0.6-0.8,1.3-1.4,2.6-1.4
			c1.9,0,3.1,1.3,3.1,3.3v5.8h-2.6v-5c0-1.2-0.6-1.8-1.5-1.8c-1,0-1.6,0.6-1.6,1.8v5h-2.6V90.3z"/>
		<path fill="#FFFFFF" stroke="#FFFFFF" stroke-miterlimit="10" d="M125.6,94.9L125.6,94.9c0-2.6,1.8-4.7,4.4-4.7
			c3,0,4.4,2.3,4.4,4.9c0,0.2,0,0.4,0,0.7h-6.3c0.3,1.2,1.1,1.8,2.2,1.8c0.9,0,1.5-0.3,2.2-0.9l1.5,1.3c-0.8,1-2,1.7-3.7,1.7
			C127.6,99.5,125.6,97.6,125.6,94.9z M131.9,94.1c-0.2-1.1-0.8-1.9-1.9-1.9c-1.1,0-1.7,0.8-1.9,1.9H131.9z"/>
		<path fill="#FFFFFF" stroke="#FFFFFF" stroke-miterlimit="10" d="M141.6,87.6h2.8l3.1,5l3.1-5h2.8v11.8h-2.6v-7.7l-3.3,5h-0.1
			l-3.3-5v7.6h-2.5V87.6z"/>
		<path fill="#FFFFFF" stroke="#FFFFFF" stroke-miterlimit="10" d="M156,87h2.7v2.3H156V87z M156,90.3h2.6v9H156V90.3z"/>
		<path fill="#FFFFFF" stroke="#FFFFFF" stroke-miterlimit="10" d="M161,90.3h2.6v1.3c0.6-0.8,1.3-1.4,2.6-1.4
			c1.9,0,3.1,1.3,3.1,3.3v5.8h-2.6v-5c0-1.2-0.6-1.8-1.5-1.8c-1,0-1.6,0.6-1.6,1.8v5H161V90.3z"/>
		<path fill="#FFFFFF" stroke="#FFFFFF" stroke-miterlimit="10" d="M171.5,87h2.7v2.3h-2.7V87z M171.6,90.3h2.6v9h-2.6V90.3z"/>
		<path fill="#FFFFFF" stroke="#FFFFFF" stroke-miterlimit="10" d="M176.5,90.3h2.6v1.3c0.6-0.8,1.3-1.4,2.6-1.4
			c1.9,0,3.1,1.3,3.1,3.3v5.8h-2.6v-5c0-1.2-0.6-1.8-1.5-1.8c-1,0-1.6,0.6-1.6,1.8v5h-2.6V90.3z"/>
		<path fill="#FFFFFF" stroke="#FFFFFF" stroke-miterlimit="10" d="M187,101.1l0.9-1.9c0.9,0.5,1.8,0.8,3,0.8c1.7,0,2.6-0.8,2.6-2.5
			v-0.4c-0.8,0.9-1.6,1.5-2.9,1.5c-2.1,0-4-1.5-4-4.2v0c0-2.7,1.9-4.2,4-4.2c1.4,0,2.2,0.6,2.9,1.3v-1.2h2.6v7
			c0,1.6-0.4,2.8-1.1,3.5c-0.8,0.8-2.1,1.2-3.9,1.2C189.5,102,188.2,101.7,187,101.1z M193.5,94.4L193.5,94.4c0-1.3-1-2.1-2.2-2.1
			s-2.2,0.9-2.2,2.1v0c0,1.2,0.9,2.1,2.2,2.1S193.5,95.6,193.5,94.4z"/>
		<path fill="#FFFFFF" stroke="#FFFFFF" stroke-miterlimit="10" d="M197.6,101c1.2-0.1,1.7-0.7,1.6-1.7h-1v-2.7h2.7v2.3
			c0,2.2-1.1,3.1-3.1,3.1L197.6,101z"/>
		<path fill="#FFFFFF" stroke="#FFFFFF" stroke-miterlimit="10" d="M206.6,91.7h1.7v7.6h-1.7V91.7z"/>
		<path fill="#FFFFFF" stroke="#FFFFFF" stroke-miterlimit="10" d="M210.1,93.5h1.7v0.8c0.4-0.5,0.9-0.9,1.7-0.9c1.3,0,2,0.8,2,2.2
			v3.8h-1.7V96c0-0.8-0.4-1.2-1-1.2c-0.6,0-1,0.4-1,1.2v3.3h-1.7V93.5z"/>
		<path fill="#FFFFFF" stroke="#FFFFFF" stroke-miterlimit="10" d="M216.6,96.4L216.6,96.4c0-1.7,1.3-3.1,3.1-3.1
			c1.1,0,1.8,0.4,2.3,1l-1,1.1c-0.4-0.4-0.7-0.6-1.3-0.6c-0.8,0-1.4,0.7-1.4,1.6v0c0,0.9,0.6,1.6,1.5,1.6c0.6,0,0.9-0.2,1.3-0.6l1,1
			c-0.6,0.6-1.2,1.1-2.4,1.1C217.9,99.4,216.6,98.1,216.6,96.4z"/>
		<path fill="#FFFFFF" stroke="#FFFFFF" stroke-miterlimit="10" d="M223,97.6h1.8v1.7H223V97.6z"/>
	</g>
	<g>
		<path fill="#5C5C60" d="M49.6,87.6H55c1.3,0,2.4,0.4,3.1,1c0.5,0.5,0.8,1.2,0.8,2v0c0,1.3-0.7,2.1-1.5,2.5
			c1.4,0.5,2.2,1.3,2.2,2.9v0c0,2.1-1.7,3.2-4.4,3.2h-5.6V87.6z M54.5,92.3c1.1,0,1.9-0.4,1.9-1.2v0c0-0.8-0.6-1.2-1.7-1.2h-2.6v2.5
			H54.5z M55.1,97c1.1,0,1.8-0.4,1.8-1.3v0c0-0.8-0.6-1.3-1.9-1.3h-3V97H55.1z"/>
		<path fill="#5C5C60" d="M61.4,90.3H64v1.8c0.5-1.2,1.4-2,2.9-2v2.7h-0.1c-1.7,0-2.7,1-2.7,3.2v3.3h-2.6V90.3z"/>
		<path fill="#5C5C60" d="M68.5,87h2.7v2.3h-2.7V87z M68.5,90.3h2.6v9h-2.6V90.3z"/>
		<path fill="#5C5C60" d="M73.5,90.3H76v1.3c0.6-0.8,1.4-1.4,2.7-1.4c1.2,0,2.1,0.5,2.5,1.4c0.8-0.9,1.7-1.4,3-1.4
			c1.9,0,3,1.1,3,3.3v5.9h-2.6v-5c0-1.2-0.5-1.8-1.5-1.8c-1,0-1.5,0.6-1.5,1.8v5h-2.6v-5c0-1.2-0.5-1.8-1.5-1.8
			c-1,0-1.5,0.6-1.5,1.8v5h-2.6V90.3z"/>
		<path fill="#5C5C60" d="M88.7,98.1l1.1-1.7c1,0.7,2,1.1,2.8,1.1c0.7,0,1.1-0.3,1.1-0.7v0c0-0.6-0.9-0.7-1.9-1
			c-1.3-0.4-2.7-1-2.7-2.7v0c0-1.8,1.5-2.9,3.3-2.9c1.1,0,2.4,0.4,3.4,1l-1,1.8c-0.9-0.5-1.8-0.8-2.4-0.8c-0.6,0-0.9,0.3-0.9,0.6v0
			c0,0.5,0.9,0.7,1.8,1.1c1.3,0.4,2.7,1,2.7,2.7v0c0,2-1.5,2.9-3.4,2.9C91.3,99.5,89.9,99.1,88.7,98.1z"/>
		<path fill="#5C5C60" d="M98.1,96.8v-4.3H97v-2.2h1.1V88h2.6v2.3h2.1v2.2h-2.1v3.8c0,0.6,0.3,0.9,0.8,0.9c0.5,0,0.9-0.1,1.3-0.3v2
			c-0.5,0.3-1.2,0.5-2,0.5C99.2,99.5,98.1,98.8,98.1,96.8z"/>
		<path fill="#5C5C60" d="M104,94.9L104,94.9c0-2.6,2.1-4.7,4.9-4.7c2.8,0,4.9,2.1,4.9,4.6v0c0,2.6-2.1,4.7-4.9,4.7
			C106,99.5,104,97.4,104,94.9z M111.2,94.9L111.2,94.9c0-1.4-1-2.5-2.4-2.5c-1.5,0-2.3,1.1-2.3,2.5v0c0,1.3,1,2.5,2.4,2.5
			C110.3,97.3,111.2,96.2,111.2,94.9z"/>
		<path fill="#5C5C60" d="M115.6,90.3h2.6v1.3c0.6-0.8,1.3-1.4,2.6-1.4c1.9,0,3.1,1.3,3.1,3.3v5.8h-2.6v-5c0-1.2-0.6-1.8-1.5-1.8
			c-1,0-1.6,0.6-1.6,1.8v5h-2.6V90.3z"/>
		<path fill="#5C5C60" d="M125.6,94.9L125.6,94.9c0-2.6,1.8-4.7,4.4-4.7c3,0,4.4,2.3,4.4,4.9c0,0.2,0,0.4,0,0.7h-6.3
			c0.3,1.2,1.1,1.8,2.2,1.8c0.9,0,1.5-0.3,2.2-0.9l1.5,1.3c-0.8,1-2,1.7-3.7,1.7C127.6,99.5,125.6,97.6,125.6,94.9z M131.9,94.1
			c-0.2-1.1-0.8-1.9-1.9-1.9c-1.1,0-1.7,0.8-1.9,1.9H131.9z"/>
		<path fill="#5C5C60" d="M141.6,87.6h2.8l3.1,5l3.1-5h2.8v11.8h-2.6v-7.7l-3.3,5h-0.1l-3.3-5v7.6h-2.5V87.6z"/>
		<path fill="#5C5C60" d="M156,87h2.7v2.3H156V87z M156,90.3h2.6v9H156V90.3z"/>
		<path fill="#5C5C60" d="M161,90.3h2.6v1.3c0.6-0.8,1.3-1.4,2.6-1.4c1.9,0,3.1,1.3,3.1,3.3v5.8h-2.6v-5c0-1.2-0.6-1.8-1.5-1.8
			c-1,0-1.6,0.6-1.6,1.8v5H161V90.3z"/>
		<path fill="#5C5C60" d="M171.5,87h2.7v2.3h-2.7V87z M171.6,90.3h2.6v9h-2.6V90.3z"/>
		<path fill="#5C5C60" d="M176.5,90.3h2.6v1.3c0.6-0.8,1.3-1.4,2.6-1.4c1.9,0,3.1,1.3,3.1,3.3v5.8h-2.6v-5c0-1.2-0.6-1.8-1.5-1.8
			c-1,0-1.6,0.6-1.6,1.8v5h-2.6V90.3z"/>
		<path fill="#5C5C60" d="M187,101.1l0.9-1.9c0.9,0.5,1.8,0.8,3,0.8c1.7,0,2.6-0.8,2.6-2.5v-0.4c-0.8,0.9-1.6,1.5-2.9,1.5
			c-2.1,0-4-1.5-4-4.2v0c0-2.7,1.9-4.2,4-4.2c1.4,0,2.2,0.6,2.9,1.3v-1.2h2.6v7c0,1.6-0.4,2.8-1.1,3.5c-0.8,0.8-2.1,1.2-3.9,1.2
			C189.5,102,188.2,101.7,187,101.1z M193.5,94.4L193.5,94.4c0-1.3-1-2.1-2.2-2.1s-2.2,0.9-2.2,2.1v0c0,1.2,0.9,2.1,2.2,2.1
			S193.5,95.6,193.5,94.4z"/>
		<path fill="#5C5C60" d="M197.6,101c1.2-0.1,1.7-0.7,1.6-1.7h-1v-2.7h2.7v2.3c0,2.2-1.1,3.1-3.1,3.1L197.6,101z"/>
		<path fill="#5C5C60" d="M206.6,91.7h1.7v7.6h-1.7V91.7z"/>
		<path fill="#5C5C60" d="M210.1,93.5h1.7v0.8c0.4-0.5,0.9-0.9,1.7-0.9c1.3,0,2,0.8,2,2.2v3.8h-1.7V96c0-0.8-0.4-1.2-1-1.2
			c-0.6,0-1,0.4-1,1.2v3.3h-1.7V93.5z"/>
		<path fill="#5C5C60" d="M216.6,96.4L216.6,96.4c0-1.7,1.3-3.1,3.1-3.1c1.1,0,1.8,0.4,2.3,1l-1,1.1c-0.4-0.4-0.7-0.6-1.3-0.6
			c-0.8,0-1.4,0.7-1.4,1.6v0c0,0.9,0.6,1.6,1.5,1.6c0.6,0,0.9-0.2,1.3-0.6l1,1c-0.6,0.6-1.2,1.1-2.4,1.1
			C217.9,99.4,216.6,98.1,216.6,96.4z"/>
		<path fill="#5C5C60" d="M223,97.6h1.8v1.7H223V97.6z"/>
	</g>
	<rect x="47" y="106.8" fill="#6DAE32" width="183" height="3"/>
	<g>
		<g>
			<path fill="#FFFFFF" d="M21.8,96.8l-5.4-5.4l0.8-0.8c0.1-0.1,0.1-0.2,0-0.3l-3.1-3.1C14,87.1,13.9,87,13.7,87l-3.4-0.4
				c-0.1,0-0.2,0.1-0.2,0.2l0.4,3.4c0,0.1,0.1,0.3,0.2,0.4l3.1,3.1c0.1,0.1,0.2,0.1,0.3,0l0.8-0.8l5.4,5.4L21.8,96.8z"/>
			<path fill="#FFFFFF" d="M33.3,108.3L24,99l-1.4,1.4l9.3,9.3c0.2,0.2,0.5,0.2,0.7,0l0.8-0.8C33.5,108.7,33.5,108.4,33.3,108.3z"/>
		</g>
		<path fill="#FFFFFF" d="M35.3,97.9c-0.6-2.4-3-5.6-3.9-6.6c0.1-0.1,0.1-0.2,0-0.3l0,0l0.1-0.1c0.2-0.2,0.2-0.5,0-0.7l-0.8-0.8
			c-0.2-0.2-0.5-0.2-0.7,0l-0.1,0.1l-0.1-0.1c-0.1-0.1-0.2-0.1-0.3,0c-1-0.8-4.2-3.3-6.6-3.9c0,0-0.2,0.1,0.1,0.3c0,0,4,3.2,5.4,4.8
			l-1,1.1l0,0.3l-16.3,16.3c-0.2,0.2-0.2,0.5,0,0.7l0.8,0.8c0.2,0.2,0.5,0.2,0.7,0l16.3-16.3l0.3,0l1.1-1c1.6,1.5,4.7,5.4,4.7,5.4
			C35.2,98.1,35.3,97.9,35.3,97.9z"/>
	</g>
</g>
</svg>
