<?xml version="1.0" encoding="utf-8"?>
<!-- Generator: Adobe Illustrator 17.1.0, SVG Export Plug-In . SVG Version: 6.00 Build 0)  -->
<!DOCTYPE svg PUBLIC "-//W3C//DTD SVG 1.1//EN" "http://www.w3.org/Graphics/SVG/1.1/DTD/svg11.dtd">
<svg version="1.1" id="Layer_1" xmlns="http://www.w3.org/2000/svg" xmlns:xlink="http://www.w3.org/1999/xlink" x="0px" y="0px"
	 viewBox="0 0 192 126.2" enable-background="new 0 0 192 126.2" xml:space="preserve">
<g>
	<g>
		<circle fill="#FFDF00" cx="96" cy="40" r="34.4"/>
		<path d="M96,0C73.9,0,56,17.9,56,40.1s17.9,40,40.1,40c22.1,0,40-17.9,40-40S118.1,0,96,0z M95.3,58.6l-3.4-4.3
			c-2.7,1.7-5.8,2.5-9.3,2.5c-5,0-9.2-1.7-12.6-5.1c-3.4-3.4-5.1-7.5-5.1-12.4c0-3.2,0.8-6.2,2.3-9c1.6-2.8,3.7-4.9,6.4-6.5
			c2.7-1.6,5.7-2.3,8.9-2.3c5,0,9.2,1.7,12.6,5.1c0.4,0.4,0.8,0.8,1.1,1.2c1.2-1.2,2.5-2.3,4.1-3.1c2.8-1.5,5.9-2.3,9.4-2.3
			c2.8,0,5.5,0.5,8,1.5c2.5,1,5,2.7,7.3,4.9l-2.6,2.5c-1.9-1.8-3.9-3.2-6.1-4.2c-2.2-1-4.4-1.4-6.5-1.4c-2.6,0-5.1,0.6-7.5,1.9
			c-1.4,0.7-2.5,1.6-3.6,2.7h-4.9c-1.1-1.5-2.5-2.7-4.2-3.6c-2.2-1.3-4.6-1.9-7.1-1.9c-2.5,0-4.9,0.6-7.1,1.9c-2.2,1.3-4,3-5.2,5.2
			c-1.2,2.2-1.9,4.6-1.9,7.3c0,4,1.4,7.4,4.1,10.1c2.7,2.7,6.1,4.1,10,4.1c2.7,0,5.1-0.6,7.3-1.9l-7.5-9.5h4.1l13,16.5H95.3z
			 M122.5,53.1c-3,3-7.1,4.6-12.2,4.6c-6.2,0-11.1-2.1-14.7-6.3c-1.5-1.8-2.6-3.7-3.3-5.7h3.8c0.2,0.5,0.5,1,0.8,1.6
			c1.4,2.3,3.2,4.1,5.6,5.4c2.4,1.3,5,1.9,7.8,1.9c3.5,0,6.4-1,8.8-2.9c2.4-1.9,3.8-4.5,4.2-7.6h-10.7v-3.2h14.5
			C127,45.9,125.5,50,122.5,53.1z"/>
	</g>
	<g>
		<path d="M14,119.5l2.7,3.5h-3.5l-1.4-1.8c-1.1,0.6-2.4,0.9-3.8,0.9c-2.3,0-4.2-0.8-5.8-2.4C0.8,118.1,0,116.2,0,114
			c0-1.5,0.4-2.8,1.1-4.1c0.7-1.2,1.7-2.2,2.9-2.9c1.3-0.7,2.6-1.1,4-1.1c2.2,0,4.1,0.8,5.6,2.4c1.6,1.6,2.4,3.5,2.4,5.8
			C16.1,116.2,15.4,118,14,119.5z M12.2,117.1c0.6-0.9,0.9-1.9,0.9-3.1c0-1.5-0.5-2.7-1.5-3.7c-1-1-2.2-1.5-3.6-1.5
			c-1.4,0-2.7,0.5-3.6,1.5c-1,1-1.5,2.3-1.5,3.8c0,1.7,0.6,3.1,1.8,4.1c1,0.8,2.1,1.2,3.3,1.2c0.7,0,1.4-0.1,2-0.4l-2.8-3.6h3.5
			L12.2,117.1z"/>
		<path d="M20,110.3h2.9v5.5c0,1.1,0.1,1.8,0.2,2.2c0.1,0.4,0.4,0.7,0.7,1c0.3,0.2,0.7,0.3,1.2,0.3c0.5,0,0.9-0.1,1.2-0.3
			c0.3-0.2,0.6-0.6,0.7-1c0.1-0.3,0.2-1,0.2-2.1v-5.6H30v4.8c0,2-0.2,3.4-0.5,4.1c-0.4,0.9-1,1.6-1.7,2.1c-0.7,0.5-1.7,0.7-2.9,0.7
			c-1.3,0-2.3-0.3-3-0.8c-0.8-0.6-1.3-1.3-1.6-2.3c-0.2-0.7-0.3-2-0.3-3.8V110.3z"/>
		<path d="M42.6,110.3h2.9v11.4h-2.9v-1.2c-0.6,0.5-1.1,0.9-1.7,1.1c-0.6,0.2-1.2,0.4-1.8,0.4c-1.5,0-2.8-0.6-3.8-1.7
			c-1.1-1.1-1.6-2.6-1.6-4.3c0-1.8,0.5-3.2,1.6-4.3c1-1.1,2.3-1.7,3.8-1.7c0.7,0,1.3,0.1,1.9,0.4c0.6,0.3,1.2,0.6,1.7,1.2V110.3z
			 M39.6,112.7c-0.9,0-1.6,0.3-2.2,0.9c-0.6,0.6-0.9,1.4-0.9,2.4c0,1,0.3,1.8,0.9,2.4c0.6,0.6,1.3,1,2.2,1c0.9,0,1.6-0.3,2.2-0.9
			c0.6-0.6,0.9-1.4,0.9-2.5c0-1-0.3-1.8-0.9-2.4C41.2,113,40.5,112.7,39.6,112.7z"/>
		<path d="M49.4,110.3h2.5v1.4c0.3-0.6,0.6-1,1.1-1.3c0.4-0.3,0.9-0.4,1.4-0.4c0.4,0,0.8,0.1,1.2,0.3l-0.9,2.5
			c-0.3-0.2-0.6-0.3-0.8-0.3c-0.4,0-0.8,0.3-1.1,0.8c-0.3,0.5-0.5,1.6-0.5,3.2l0,0.6v4.6h-2.8V110.3z"/>
		<path d="M59.4,106.1h2.9v4.2h1.7v2.5h-1.7v9h-2.9v-9h-1.5v-2.5h1.5V106.1z"/>
		<path d="M66.6,110.3h8.7l-5.1,9h4.8v2.4h-9.2l5.2-9h-4.4V110.3z"/>
		<path d="M81.4,105.9v5.7c0.5-0.5,1.1-0.9,1.7-1.2c0.6-0.3,1.2-0.4,1.9-0.4c1.5,0,2.8,0.6,3.8,1.7c1,1.1,1.6,2.6,1.6,4.3
			c0,1.7-0.5,3.1-1.6,4.3c-1.1,1.1-2.4,1.7-3.8,1.7c-0.7,0-1.3-0.1-1.8-0.4c-0.6-0.2-1.1-0.6-1.7-1.1v1.2h-2.8v-15.8H81.4z
			 M84.4,112.7c-0.9,0-1.7,0.3-2.2,0.9c-0.6,0.6-0.9,1.4-0.9,2.4c0,1,0.3,1.8,0.9,2.5c0.6,0.6,1.3,0.9,2.2,0.9c0.9,0,1.6-0.3,2.2-1
			c0.6-0.6,0.9-1.4,0.9-2.4c0-1-0.3-1.8-0.9-2.4C86,113,85.3,112.7,84.4,112.7z"/>
		<path d="M94,110.3h2.9v5.5c0,1.1,0.1,1.8,0.2,2.2c0.1,0.4,0.4,0.7,0.7,1c0.3,0.2,0.7,0.3,1.2,0.3c0.5,0,0.9-0.1,1.2-0.3
			c0.3-0.2,0.6-0.6,0.7-1c0.1-0.3,0.2-1,0.2-2.1v-5.6h2.9v4.8c0,2-0.2,3.4-0.5,4.1c-0.4,0.9-1,1.6-1.7,2.1c-0.7,0.5-1.7,0.7-2.9,0.7
			c-1.3,0-2.3-0.3-3-0.8c-0.8-0.6-1.3-1.3-1.6-2.3c-0.2-0.7-0.3-2-0.3-3.8V110.3z"/>
		<path d="M107.9,110.3h2.5v1.4c0.3-0.6,0.6-1,1.1-1.3c0.4-0.3,0.9-0.4,1.4-0.4c0.4,0,0.8,0.1,1.2,0.3l-0.9,2.5
			c-0.3-0.2-0.6-0.3-0.8-0.3c-0.4,0-0.8,0.3-1.1,0.8c-0.3,0.5-0.5,1.6-0.5,3.2l0,0.6v4.6h-2.8V110.3z"/>
		<path d="M125,110.3h2.9v9.8c0,1.9-0.4,3.4-1.2,4.3c-1,1.2-2.6,1.8-4.7,1.8c-1.1,0-2.1-0.1-2.8-0.4c-0.8-0.3-1.4-0.7-1.9-1.2
			c-0.5-0.5-0.9-1.2-1.2-2h3.2c0.3,0.3,0.6,0.6,1.1,0.7c0.4,0.2,1,0.2,1.6,0.2c0.8,0,1.4-0.1,1.9-0.4c0.5-0.2,0.8-0.5,1-0.9
			c0.2-0.4,0.3-1,0.3-2c-0.5,0.5-1,0.9-1.6,1.1c-0.6,0.2-1.2,0.3-1.9,0.3c-1.5,0-2.8-0.6-3.9-1.7c-1.1-1.1-1.6-2.5-1.6-4.2
			c0-1.8,0.6-3.3,1.7-4.4c1-1,2.2-1.5,3.6-1.5c0.7,0,1.3,0.1,1.9,0.4c0.6,0.2,1.2,0.6,1.8,1.2V110.3z M122,112.7
			c-0.9,0-1.6,0.3-2.2,0.9c-0.6,0.6-0.9,1.4-0.9,2.3c0,1,0.3,1.7,0.9,2.3c0.6,0.6,1.4,0.9,2.3,0.9c0.9,0,1.6-0.3,2.2-0.9
			c0.6-0.6,0.9-1.4,0.9-2.3c0-1-0.3-1.7-0.9-2.3C123.7,113,122.9,112.7,122,112.7z"/>
		<path d="M153.9,108.8l-2.1,2c-1.3-1.4-2.8-2.1-4.6-2.1c-1.5,0-2.8,0.5-3.8,1.5c-1,1-1.5,2.2-1.5,3.7c0,1.5,0.5,2.8,1.6,3.8
			c1.1,1,2.4,1.6,3.9,1.6c1,0,1.9-0.2,2.6-0.6c0.7-0.4,1.3-1.1,1.7-2h-4.5v-2.8h7.8l0,0.7c0,1.4-0.3,2.6-1,3.8
			c-0.7,1.2-1.6,2.1-2.7,2.8c-1.1,0.6-2.4,1-3.9,1c-1.6,0-3-0.3-4.3-1c-1.3-0.7-2.3-1.7-3-3c-0.7-1.3-1.1-2.7-1.1-4.2
			c0-2,0.7-3.8,2-5.3c1.6-1.8,3.7-2.7,6.3-2.7c1.3,0,2.6,0.2,3.8,0.7C152,107.1,153,107.8,153.9,108.8z"/>
		<path d="M164.1,110c1.1,0,2.1,0.3,3,0.8c0.9,0.5,1.7,1.3,2.2,2.2c0.5,0.9,0.8,1.9,0.8,3c0,1.1-0.3,2.1-0.8,3
			c-0.5,0.9-1.3,1.7-2.2,2.2c-0.9,0.5-1.9,0.8-3.1,0.8c-1.6,0-3-0.6-4.2-1.7c-1.2-1.2-1.7-2.6-1.7-4.2c0-1.8,0.7-3.3,2-4.5
			C161.3,110.6,162.6,110,164.1,110z M164.1,112.7c-0.9,0-1.6,0.3-2.2,0.9s-0.9,1.4-0.9,2.4c0,1,0.3,1.8,0.9,2.4
			c0.6,0.6,1.3,0.9,2.2,0.9s1.6-0.3,2.2-0.9c0.6-0.6,0.9-1.4,0.9-2.4c0-1-0.3-1.8-0.9-2.4C165.8,113,165,112.7,164.1,112.7z"/>
		<path d="M173.7,105.9h2.9v15.8h-2.9V105.9z"/>
		<path d="M189.2,105.9h2.9v15.8h-2.9v-1.2c-0.6,0.5-1.1,0.9-1.7,1.1c-0.6,0.2-1.2,0.4-1.8,0.4c-1.5,0-2.8-0.6-3.8-1.7
			c-1.1-1.1-1.6-2.6-1.6-4.3c0-1.8,0.5-3.2,1.6-4.3c1-1.1,2.3-1.7,3.8-1.7c0.7,0,1.3,0.1,1.9,0.4c0.6,0.3,1.2,0.6,1.7,1.2V105.9z
			 M186.1,112.7c-0.9,0-1.6,0.3-2.2,0.9c-0.6,0.6-0.9,1.4-0.9,2.4c0,1,0.3,1.8,0.9,2.4c0.6,0.6,1.3,1,2.2,1c0.9,0,1.6-0.3,2.2-0.9
			c0.6-0.6,0.9-1.4,0.9-2.5c0-1-0.3-1.8-0.9-2.4C187.8,113,187,112.7,186.1,112.7z"/>
	</g>
</g>
</svg>
